<svg width="124" height="124" viewBox="0 0 124 124" fill="none" xmlns="http://www.w3.org/2000/svg">
<g filter="url(#filter0_d_466_1459)">
<rect x="4" width="116" height="116" fill="white"/>
</g>
<path opacity="0.25" d="M53.5938 99.3748C72.1126 99.3748 87.125 84.1338 87.125 65.3332C87.125 46.5325 72.1126 31.2915 53.5938 31.2915C35.0749 31.2915 20.0625 46.5325 20.0625 65.3332C20.0625 84.1338 35.0749 99.3748 53.5938 99.3748Z" fill="#C16AFF"/>
<path opacity="0.5" d="M51.7812 74.2918C67.297 74.2918 79.875 61.4574 79.875 45.6252C79.875 29.7929 67.297 16.9585 51.7812 16.9585C36.2655 16.9585 23.6875 29.7929 23.6875 45.6252C23.6875 61.4574 36.2655 74.2918 51.7812 74.2918Z" fill="#FFEB3B"/>
<path opacity="0.5" d="M87.125 45.6248C94.1321 45.6248 99.8125 40.0098 99.8125 33.0832C99.8125 26.1566 94.1321 20.5415 87.125 20.5415C80.1179 20.5415 74.4375 26.1566 74.4375 33.0832C74.4375 40.0098 80.1179 45.6248 87.125 45.6248Z" fill="#C16AFF"/>
<path opacity="0.5" d="M75.3438 97.5833C90.8595 97.5833 103.438 84.7489 103.438 68.9167C103.438 53.0844 90.8595 40.25 75.3438 40.25C59.828 40.25 47.25 53.0844 47.25 68.9167C47.25 84.7489 59.828 97.5833 75.3438 97.5833Z" fill="#EF643B"/>
<path d="M81.4235 46.5123C87.0153 44.6484 89.8899 45.5431 89.8899 45.5431V40.3986C89.8899 40.3986 89.6083 36.911 84.4224 36.5465C84.4224 36.5465 76.3205 35.047 73.479 35.1299C70.6458 35.2127 62.3782 35.6186 62.3782 35.6186C62.3782 35.6186 53.7875 37.0767 53.423 37.3169C53.0585 37.5571 51.0289 39.5453 51.1532 41.0448C51.2774 42.5442 51.2774 73.3779 51.2774 73.3779C51.2774 73.3779 52.2467 76.9401 56.4633 77.1472L58.0042 77.5945C58.0042 77.5945 58.1284 78.9283 60.8042 79.3756C63.48 79.8229 70.6541 80.6348 70.6541 80.6348L77.8282 80.3946C77.8282 80.3946 76.1631 83.4348 73.0482 85.1331C69.9251 86.8314 66.4457 87.8917 61.0942 87.8917C55.7426 87.8917 52.5035 86.7982 52.5035 86.7982C52.5035 86.7982 46.3069 84.7355 44.1531 81.2064C41.9992 77.6773 38.2796 72.4915 37.7494 66.1292C37.2192 59.767 36.25 58.9551 36.6145 54.6639C36.6145 54.6639 38.5613 54.9042 38.9258 53.1231V50.323C39.0086 50.0828 54.2432 35.3287 37.4677 24.1451C37.4677 24.1451 31.5528 23.093 27.825 26.6552C24.0971 30.2174 20.684 41.0779 29.9292 50.3148L30.2522 51.0438V53.6367C30.2522 53.6367 31.47 54.7716 32.6795 54.6059L33.218 60.4711L34.3529 67.2807C34.3529 67.2807 36.9293 79.6904 41.5518 83.7496C46.1744 87.8006 52.7769 94.2871 68.6576 90.3935C68.6576 90.3935 78.8306 88.6124 82.0697 79.8147C82.0697 79.8147 85.5987 79.8975 88.026 78.8868C90.4533 77.8762 89.8071 76.8986 89.8071 76.8986L89.8816 74.6288C89.8816 74.6288 83.7265 76.3684 77.853 71.5056C71.9796 66.6428 72.2198 59.9989 72.5843 57.5634C72.9488 55.1361 75.8234 48.368 81.4152 46.504L81.4235 46.5123ZM57.7225 74.1649C57.416 74.4051 54.9059 73.0299 54.8065 72.8891C54.7071 72.7483 54.7237 65.657 54.7237 65.657L57.7225 65.7813V74.1649ZM68.0529 42.3785C62.7841 43.0661 59.2965 43.8365 59.2965 43.8365C59.2965 43.8365 57.9628 43.7951 57.8385 45.7585C57.7142 47.7218 57.8385 52.8663 57.8385 52.8663H54.7568V40.5891C54.7568 40.5891 63.0244 38.079 71.5736 38.7666C71.5736 38.7666 77.2483 39.5785 78.8637 42.0057V42.4531C78.8637 42.4531 73.3133 41.6827 68.0446 42.3702L68.0529 42.3785Z" fill="black"/>
<path d="M87.1811 47.3989C80.1727 47.3989 74.498 53.0736 74.498 60.082C74.498 67.0904 80.1727 72.765 87.1811 72.765C94.1895 72.765 99.8642 67.0904 99.8642 60.082C99.8642 53.0736 94.1895 47.3989 87.1811 47.3989ZM88.3326 69.6668V66.933H86.2284V69.7247C81.7301 69.3354 78.1265 65.7898 77.6709 61.308H80.4461V59.0382H77.7206C78.317 54.7221 81.8378 51.3422 86.2201 50.9611V53.3138H88.3243V51.0191C92.4913 51.5907 95.7801 54.8795 96.3517 59.0382H93.9907V61.308H96.4014C95.9623 65.6324 92.5989 69.0786 88.316 69.6668H88.3326Z" fill="black"/>
<path d="M86.112 62.9313C86.112 62.9313 87.5949 63.5775 88.6552 62.4426C89.7156 61.3076 91.4139 57.762 91.4139 57.762L91.7618 56.4448V55.4756L87.7606 56.6354C87.7606 56.6354 84.5463 58.665 84.5214 59.1455C84.4966 59.626 83.8753 62.0366 86.112 62.9313Z" fill="black"/>
<defs>
<filter id="filter0_d_466_1459" x="0" y="0" width="124" height="124" filterUnits="userSpaceOnUse" color-interpolation-filters="sRGB">
<feFlood flood-opacity="0" result="BackgroundImageFix"/>
<feColorMatrix in="SourceAlpha" type="matrix" values="0 0 0 0 0 0 0 0 0 0 0 0 0 0 0 0 0 0 127 0" result="hardAlpha"/>
<feOffset dy="4"/>
<feGaussianBlur stdDeviation="2"/>
<feComposite in2="hardAlpha" operator="out"/>
<feColorMatrix type="matrix" values="0 0 0 0 0 0 0 0 0 0 0 0 0 0 0 0 0 0 0.25 0"/>
<feBlend mode="normal" in2="BackgroundImageFix" result="effect1_dropShadow_466_1459"/>
<feBlend mode="normal" in="SourceGraphic" in2="effect1_dropShadow_466_1459" result="shape"/>
</filter>
</defs>
</svg>
