<svg width="124" height="124" viewBox="0 0 124 124" fill="none" xmlns="http://www.w3.org/2000/svg">
<g filter="url(#filter0_d_423_1614)">
<rect x="4" width="116" height="116" fill="white"/>
</g>
<g clip-path="url(#clip0_423_1614)">
<path opacity="0.25" d="M61.6986 101.812C78.0888 101.812 91.3757 88.1663 91.3757 71.3332C91.3757 54.5 78.0888 40.854 61.6986 40.854C45.3083 40.854 32.0215 54.5 32.0215 71.3332C32.0215 88.1663 45.3083 101.812 61.6986 101.812Z" fill="#C16AFF"/>
<path opacity="0.5" d="M60.0931 79.3543C73.8254 79.3543 84.9577 67.863 84.9577 53.6877C84.9577 39.5123 73.8254 28.021 60.0931 28.021C46.3608 28.021 35.2285 39.5123 35.2285 53.6877C35.2285 67.863 46.3608 79.3543 60.0931 79.3543Z" fill="#FFEB3B"/>
<path opacity="0.5" d="M91.3757 53.6873C97.5774 53.6873 102.605 48.6599 102.605 42.4582C102.605 36.2565 97.5774 31.229 91.3757 31.229C85.1739 31.229 80.1465 36.2565 80.1465 42.4582C80.1465 48.6599 85.1739 53.6873 91.3757 53.6873Z" fill="#C16AFF"/>
<path opacity="0.5" d="M80.9486 100.208C94.6809 100.208 105.813 88.717 105.813 74.5417C105.813 60.3663 94.6809 48.875 80.9486 48.875C67.2163 48.875 56.084 60.3663 56.084 74.5417C56.084 88.717 67.2163 100.208 80.9486 100.208Z" fill="#EF643B"/>
</g>
<g clip-path="url(#clip1_423_1614)">
<path d="M60.0037 14L38.2081 53.2422C38.2081 53.2422 23.6662 82.2121 56.5033 93H63.4984C96.3355 82.2121 81.7936 53.2422 81.7936 53.2422L60.0037 14Z" fill="black"/>
<path d="M60.4336 76.5545C58.2934 76.5545 56.4705 75.9721 54.9648 74.8073C53.4592 73.6331 52.3086 71.9333 51.5131 69.7079C50.7177 67.473 50.32 64.7742 50.32 61.6113C50.32 58.4673 50.7177 55.7827 51.5131 53.5573C52.3181 51.3225 53.4734 49.6179 54.979 48.4437C56.4942 47.26 58.3124 46.6681 60.4336 46.6681C62.5548 46.6681 64.3683 47.26 65.8739 48.4437C67.3891 49.6179 68.5444 51.3225 69.3398 53.5573C70.1448 55.7827 70.5472 58.4673 70.5472 61.6113C70.5472 64.7742 70.1495 67.473 69.354 69.7079C68.5586 71.9333 67.408 73.6331 65.9023 74.8073C64.3967 75.9721 62.5737 76.5545 60.4336 76.5545ZM60.4336 73.4295C62.5548 73.4295 64.2025 72.4067 65.3768 70.3613C66.551 68.3158 67.1381 65.3992 67.1381 61.6113C67.1381 59.0923 66.8683 56.9475 66.3285 55.1766C65.7982 53.4058 65.0311 52.0564 64.0273 51.1283C63.033 50.2003 61.8351 49.7363 60.4336 49.7363C58.3313 49.7363 56.6883 50.7732 55.5046 52.8471C54.3209 54.9115 53.729 57.8329 53.729 61.6113C53.729 64.1302 53.9942 66.2704 54.5245 68.0317C55.0548 69.7931 55.8171 71.1331 56.8114 72.0516C57.8152 72.9702 59.0226 73.4295 60.4336 73.4295Z" fill="white"/>
<path d="M72.0282 75.1885V74.5493L74.4288 71.9214C74.7105 71.6137 74.9425 71.3461 75.1248 71.1189C75.3071 70.8892 75.4421 70.6738 75.5297 70.4726C75.6196 70.269 75.6646 70.0559 75.6646 69.8334C75.6646 69.5777 75.603 69.3563 75.4799 69.1693C75.3592 68.9823 75.1935 68.8379 74.9828 68.7361C74.7721 68.6343 74.5353 68.5834 74.2725 68.5834C73.9932 68.5834 73.7493 68.6414 73.541 68.7574C73.335 68.871 73.1752 69.0308 73.0616 69.2368C72.9503 69.4427 72.8947 69.6842 72.8947 69.9612H72.0566C72.0566 69.5351 72.1549 69.161 72.3514 68.839C72.5479 68.5171 72.8154 68.2661 73.1539 68.0862C73.4949 67.9063 73.8772 67.8163 74.301 67.8163C74.7271 67.8163 75.1047 67.9063 75.4338 68.0862C75.7628 68.2661 76.0209 68.5088 76.2079 68.8142C76.3949 69.1196 76.4885 69.4593 76.4885 69.8334C76.4885 70.1009 76.4399 70.3625 76.3429 70.6182C76.2482 70.8715 76.0824 71.1544 75.8457 71.4669C75.6113 71.777 75.2858 72.1558 74.8691 72.6032L73.2356 74.3504V74.4072H76.6163V75.1885H72.0282Z" fill="white"/>
</g>
<defs>
<filter id="filter0_d_423_1614" x="0" y="0" width="124" height="124" filterUnits="userSpaceOnUse" color-interpolation-filters="sRGB">
<feFlood flood-opacity="0" result="BackgroundImageFix"/>
<feColorMatrix in="SourceAlpha" type="matrix" values="0 0 0 0 0 0 0 0 0 0 0 0 0 0 0 0 0 0 127 0" result="hardAlpha"/>
<feOffset dy="4"/>
<feGaussianBlur stdDeviation="2"/>
<feComposite in2="hardAlpha" operator="out"/>
<feColorMatrix type="matrix" values="0 0 0 0 0 0 0 0 0 0 0 0 0 0 0 0 0 0 0.25 0"/>
<feBlend mode="normal" in2="BackgroundImageFix" result="effect1_dropShadow_423_1614"/>
<feBlend mode="normal" in="SourceGraphic" in2="effect1_dropShadow_423_1614" result="shape"/>
</filter>
<clipPath id="clip0_423_1614">
<rect width="77" height="77" fill="white" transform="translate(24 20)"/>
</clipPath>
<clipPath id="clip1_423_1614">
<rect width="50" height="79" fill="white" transform="translate(35 14)"/>
</clipPath>
</defs>
</svg>
