<svg width="124" height="124" viewBox="0 0 124 124" fill="none" xmlns="http://www.w3.org/2000/svg">
<g filter="url(#filter0_d_423_1601)">
<rect x="4" width="116" height="116" fill="white"/>
</g>
<g clip-path="url(#clip0_423_1601)">
<path opacity="0.25" d="M57.4375 85.1875C75.8354 85.1875 90.75 71.1825 90.75 53.9062C90.75 36.63 75.8354 22.625 57.4375 22.625C39.0396 22.625 24.125 36.63 24.125 53.9062C24.125 71.1825 39.0396 85.1875 57.4375 85.1875Z" fill="#C16AFF"/>
<path opacity="0.5" d="M72.6475 71.9048C80.599 71.9048 87.045 65.5414 87.045 57.6919C87.045 49.8424 80.599 43.479 72.6475 43.479C64.6961 43.479 58.25 49.8424 58.25 57.6919C58.25 65.5414 64.6961 71.9048 72.6475 71.9048Z" fill="#C16AFF"/>
<path opacity="0.5" d="M72.875 91.6043C87.2345 91.6043 98.875 80.113 98.875 65.9377C98.875 51.7623 87.2345 40.271 72.875 40.271C58.5155 40.271 46.875 51.7623 46.875 65.9377C46.875 80.113 58.5155 91.6043 72.875 91.6043Z" fill="#EF643B"/>
<path opacity="0.5" d="M71.25 75.5625C85.6095 75.5625 97.25 63.712 97.25 49.0938C97.25 34.4755 85.6095 22.625 71.25 22.625C56.8905 22.625 45.25 34.4755 45.25 49.0938C45.25 63.712 56.8905 75.5625 71.25 75.5625Z" fill="#FFEB3B"/>
<path d="M41.6546 22.5035C41.8148 22.5019 41.975 22.5003 42.14 22.4987C42.6728 22.4945 43.2053 22.4968 43.7381 22.4992C44.1217 22.4976 44.5054 22.4955 44.889 22.4932C45.9283 22.488 46.9676 22.4887 48.007 22.4907C48.8761 22.4919 49.7451 22.4902 50.6142 22.4885C52.6656 22.4846 54.7169 22.4855 56.7682 22.4893C58.8809 22.4932 60.9935 22.4896 63.1061 22.4821C64.923 22.476 66.7399 22.4743 68.5568 22.4763C69.6406 22.4774 70.7243 22.4769 71.8081 22.4722C72.828 22.468 73.8477 22.4694 74.8676 22.475C75.2405 22.4761 75.6135 22.4754 75.9864 22.4724C78.0464 22.4576 79.8171 22.5162 81.5618 23.7704C82.6535 24.8683 82.9815 25.9227 82.9988 27.4647C82.9986 27.647 82.9983 27.8293 82.9981 28.0172C82.9996 28.2131 83.0011 28.409 83.0027 28.6108C83.0072 29.2669 83.0084 29.9231 83.0096 30.5793C83.0121 31.0499 83.0148 31.5205 83.0176 31.9911C83.0246 33.2699 83.0285 34.5487 83.0314 35.8275C83.0332 36.6271 83.0355 37.4268 83.038 38.2264C83.0455 40.7303 83.0509 43.2342 83.0537 45.7381C83.057 48.6246 83.067 51.511 83.0828 54.3975C83.0947 56.6309 83.1004 58.8642 83.1014 61.0976C83.1022 62.4304 83.1056 63.7631 83.1154 65.0958C83.1245 66.3509 83.1259 67.6058 83.1216 68.861C83.1213 69.3198 83.1237 69.7787 83.1291 70.2375C83.1595 72.9662 83.0476 75.0469 81.3333 77.2974C79.8748 78.7348 78.2598 79.4533 76.2175 79.4484C76.0637 79.4485 75.9099 79.4487 75.7514 79.4488C75.4294 79.4482 75.1075 79.446 74.7856 79.4422C74.2918 79.4367 73.7983 79.4375 73.3045 79.439C70.889 79.4291 70.889 79.4291 70.3683 78.9055C70.5001 77.3946 70.5001 77.3946 70.8252 77.0677C71.2771 77.0425 71.7298 77.0318 72.1824 77.0273C72.462 77.0218 72.7416 77.0163 73.0297 77.0107C73.6192 77.0009 74.2087 76.9937 74.7983 76.9891C76.4672 76.9514 77.6381 76.8433 79.0489 75.919C80.1671 74.7369 80.2253 73.7509 80.2263 72.1817C80.2273 71.9857 80.2283 71.7897 80.2293 71.5877C80.2324 70.9285 80.2338 70.2693 80.2352 69.61C80.237 69.1384 80.2389 68.6667 80.2408 68.1951C80.2468 66.6445 80.2503 65.0939 80.2536 63.5432C80.2548 63.01 80.256 62.4767 80.2573 61.9434C80.2622 59.7262 80.2665 57.5089 80.2691 55.2916C80.2728 52.1106 80.2804 48.9296 80.2934 45.7485C80.3022 43.5135 80.3067 41.2784 80.3079 39.0433C80.3087 37.7074 80.3115 36.3716 80.3189 35.0357C80.3257 33.7796 80.3272 32.5237 80.3245 31.2677C80.3244 30.8061 80.3264 30.3446 80.3303 29.883C80.3355 29.254 80.3337 28.6253 80.33 27.9963C80.3332 27.8126 80.3364 27.629 80.3396 27.4397C80.3274 26.589 80.2628 26.153 79.71 25.4949C78.9064 25.0741 78.376 25.0338 77.471 25.0336C77.237 25.0317 77.237 25.0317 76.9984 25.0298C76.4773 25.0266 75.9565 25.0301 75.4354 25.0335C75.0612 25.0326 74.6871 25.0314 74.3129 25.0297C73.2977 25.0265 72.2825 25.0291 71.2673 25.0329C70.2047 25.0361 69.1422 25.0346 68.0796 25.0338C66.2952 25.0332 64.5108 25.0362 62.7264 25.0416C60.6636 25.0477 58.6008 25.0481 56.538 25.0454C54.5534 25.0429 52.5688 25.0443 50.5842 25.0476C49.7397 25.0489 48.8952 25.0489 48.0507 25.0478C47.0561 25.0467 46.0617 25.049 45.0672 25.054C44.7022 25.0553 44.3373 25.0554 43.9723 25.0542C43.4741 25.0529 42.976 25.0557 42.4777 25.0597C42.0595 25.0605 42.0595 25.0605 41.6329 25.0614C40.7643 25.1649 40.1521 25.4412 39.5291 26.0677C39.5058 26.6838 39.4974 27.2941 39.4986 27.9103C39.4981 28.1058 39.4975 28.3012 39.497 28.5026C39.4955 29.1628 39.4957 29.8229 39.4959 30.483C39.4952 30.9542 39.4945 31.4254 39.4936 31.8966C39.4916 33.1806 39.4911 34.4645 39.4909 35.7485C39.4907 36.8189 39.4899 37.8893 39.489 38.9598C39.4872 41.485 39.4866 44.0103 39.4868 46.5355C39.4869 49.1429 39.4845 51.7503 39.4809 54.3577C39.4779 56.5935 39.4767 58.8294 39.4768 61.0652C39.4769 62.4018 39.4762 63.7383 39.4738 65.0749C39.4716 66.3322 39.4716 67.5894 39.4733 68.8468C39.4735 69.3086 39.473 69.7704 39.4716 70.2323C39.4698 70.8621 39.4709 71.492 39.4726 72.1218C39.4715 72.3051 39.4703 72.4884 39.4691 72.6773C39.4763 73.8424 39.5519 74.7645 40.3643 75.6354C40.5728 75.8042 40.5728 75.8042 40.7855 75.9764C40.994 76.1488 40.994 76.1488 41.2067 76.3246C41.897 76.842 42.3548 76.8709 43.2052 76.8851C43.4476 76.8897 43.6899 76.8943 43.9396 76.899C44.2021 76.9028 44.4646 76.9067 44.735 76.9106C45.1371 76.9178 45.1371 76.9178 45.5474 76.9251C46.4063 76.9401 47.2652 76.9537 48.1241 76.9672C48.7053 76.9771 49.2865 76.9871 49.8677 76.9972C51.2949 77.0219 52.722 77.0452 54.1492 77.0677C54.1492 76.3854 54.1492 75.7031 54.1492 75.0001C53.6969 75.0001 53.2445 75.0001 52.7785 75.0001C52.463 74.3655 52.5065 73.8636 52.5501 73.1623C53.007 72.7028 53.007 72.7028 53.5894 72.646C53.9582 72.6465 53.9582 72.6465 54.3344 72.647C54.6126 72.6463 54.8908 72.6456 55.1774 72.6449C55.4822 72.6464 55.787 72.6481 56.0918 72.6499C56.403 72.6501 56.7142 72.6502 57.0254 72.6502C57.6778 72.6505 58.3301 72.6524 58.9824 72.6555C59.8203 72.6594 60.6581 72.6603 61.496 72.6601C62.1386 72.6602 62.7812 72.6614 63.4237 72.6631C63.7328 72.6638 64.0418 72.6643 64.3509 72.6645C64.7819 72.665 65.2129 72.6672 65.6439 72.6694C65.8895 72.6703 66.1352 72.6712 66.3883 72.6721C66.9417 72.7028 66.9417 72.7028 67.1701 72.9325C67.213 73.7222 67.213 73.7222 67.1701 74.5406C66.7133 75.0001 66.7133 75.0001 66.1136 75.0288C65.9346 75.0193 65.7555 75.0099 65.5711 75.0001C65.5734 75.4338 65.5734 75.4338 65.5757 75.8763C65.5896 78.5976 65.5998 81.3189 65.6066 84.0402C65.6102 85.4393 65.615 86.8384 65.6228 88.2375C65.6302 89.5871 65.6343 90.9366 65.6361 92.2861C65.6374 92.8017 65.6398 93.3173 65.6435 93.8329C65.6485 94.5535 65.6492 95.274 65.6489 95.9946C65.6513 96.2091 65.6538 96.4236 65.6563 96.6446C65.6554 96.8408 65.6545 97.0369 65.6535 97.2391C65.6541 97.4095 65.6547 97.58 65.6554 97.7556C65.5471 98.3302 65.3368 98.5344 64.8858 98.892C64.4366 98.9795 64.4366 98.9795 63.9208 98.9812C63.7271 98.9833 63.5334 98.9855 63.3339 98.9878C63.0212 98.9857 63.0212 98.9857 62.7022 98.9835C62.4873 98.9842 62.2724 98.9848 62.051 98.9855C61.5965 98.986 61.142 98.9847 60.6875 98.9818C59.992 98.9782 59.2969 98.9818 58.6015 98.9862C58.1599 98.9858 57.7184 98.9849 57.2768 98.9835C57.0688 98.9849 56.8608 98.9863 56.6465 98.9878C56.4521 98.9856 56.2577 98.9834 56.0575 98.9812C55.8019 98.9803 55.8019 98.9803 55.5411 98.9795C54.88 98.8585 54.6009 98.7102 54.1492 98.2028C54.0619 97.5762 54.0334 97.0426 54.0454 96.4164C54.0453 96.2348 54.0452 96.0532 54.045 95.8661C54.0457 95.2656 54.0528 94.6654 54.0599 94.065C54.0616 93.6488 54.0629 93.2325 54.0638 92.8163C54.0673 91.7207 54.0763 90.6251 54.0864 89.5295C54.0958 88.4115 54.0999 87.2936 54.1045 86.1756C54.1143 83.9819 54.1299 81.7883 54.1492 79.5947C54.0122 79.5967 53.8751 79.5988 53.734 79.6009C52.2959 79.6214 50.8579 79.6351 49.4198 79.6452C48.8845 79.6498 48.3492 79.656 47.814 79.664C47.0405 79.6753 46.2671 79.6804 45.4935 79.6844C45.2578 79.6892 45.0221 79.6939 44.7793 79.6988C42.7649 79.6994 40.9325 79.2751 39.215 78.1876C38.3981 77.2878 37.8186 76.2989 37.2447 75.2298C37.1645 75.1067 37.0842 74.9835 37.0015 74.8567C36.6835 74.0442 36.7243 73.2387 36.7283 72.3782C36.7274 72.1814 36.7266 71.9846 36.7257 71.7818C36.7233 71.1211 36.7242 70.4605 36.7251 69.7999C36.7241 69.3267 36.7229 68.8535 36.7216 68.3803C36.7185 67.094 36.7184 65.8077 36.719 64.5214C36.7192 63.4481 36.7181 62.3748 36.717 61.3015C36.7145 58.7695 36.7144 56.2375 36.7157 53.7056C36.7171 51.0925 36.7143 48.4795 36.7094 45.8665C36.7054 43.624 36.7041 41.3815 36.7048 39.139C36.7052 37.7993 36.7046 36.4595 36.7014 35.1198C36.6986 33.8598 36.699 32.5999 36.702 31.3399C36.7025 30.8774 36.7019 30.4149 36.7 29.9525C36.6976 29.3212 36.6995 28.69 36.7024 28.0587C36.7007 27.8757 36.699 27.6926 36.6973 27.504C36.7129 25.889 37.2758 24.7201 38.3869 23.5406C39.5291 22.7772 40.255 22.5067 41.6546 22.5035Z" fill="black"/>
<path d="M44.937 28.0736C45.2069 28.0717 45.4769 28.0697 45.7551 28.0677C46.0516 28.0679 46.3482 28.0681 46.6538 28.0683C46.969 28.0669 47.2842 28.0654 47.5994 28.0636C48.4561 28.0596 49.3127 28.0585 50.1694 28.0582C50.8847 28.0578 51.5999 28.0561 52.3152 28.0545C54.0031 28.0507 55.691 28.0496 57.3789 28.0499C59.1194 28.0502 60.8598 28.0454 62.6003 28.0381C64.0949 28.0321 65.5895 28.0296 67.0842 28.0299C67.9767 28.03 68.8691 28.0287 69.7617 28.0239C70.6015 28.0194 71.4412 28.0194 72.2811 28.0227C72.7353 28.0234 73.1895 28.0196 73.6437 28.0156C76.1487 28.0334 76.1487 28.0334 77.2214 29.054C77.499 29.6125 77.481 29.9729 77.485 30.5973C77.4869 30.8259 77.4889 31.0546 77.4909 31.2902C77.4924 31.6679 77.4924 31.6679 77.4939 32.0533C77.4967 32.45 77.4967 32.45 77.4995 32.8548C77.5052 33.7332 77.509 34.6116 77.5123 35.49C77.5135 35.7895 77.5147 36.0889 77.516 36.3975C77.5209 37.656 77.5252 38.9145 77.5278 40.173C77.5315 41.9759 77.539 43.7787 77.5521 45.5816C77.5609 46.8496 77.5654 48.1175 77.5666 49.3855C77.5674 50.1426 77.5707 50.8996 77.5776 51.6567C77.5848 52.5021 77.5848 53.3472 77.5831 54.1926C77.5868 54.4425 77.5906 54.6925 77.5945 54.95C77.5789 56.8436 77.5789 56.8436 76.8989 57.6923C76.0642 58.4508 75.6834 58.4889 74.5807 58.4963C74.3107 58.4986 74.0407 58.5009 73.7625 58.5033C73.4648 58.5046 73.167 58.506 72.8602 58.5073C72.5447 58.5095 72.2291 58.5118 71.9136 58.5142C70.8759 58.5214 69.8381 58.526 68.8004 58.5303C68.6239 58.531 68.4474 58.5318 68.2656 58.5326C66.6016 58.5396 64.9375 58.5458 63.2735 58.5497C61.1441 58.5547 59.0149 58.5644 56.8856 58.5803C55.3888 58.5912 53.8921 58.5967 52.3953 58.5984C51.5011 58.5996 50.6071 58.603 49.7129 58.6121C48.8715 58.6206 48.0304 58.6225 47.189 58.6195C46.7333 58.6195 46.2777 58.6264 45.8221 58.6334C43.5926 58.6152 43.5926 58.6152 42.886 57.9241C42.2465 56.8743 42.3455 55.6483 42.3618 54.458C42.3609 54.1956 42.36 53.9332 42.3591 53.6628C42.3576 52.7968 42.3642 51.931 42.3712 51.065C42.3721 50.4625 42.3727 49.86 42.3728 49.2575C42.3738 47.9952 42.3792 46.7331 42.3875 45.4709C42.397 44.0138 42.4011 42.5567 42.4018 41.0996C42.4026 39.6951 42.406 38.2907 42.4109 36.8862C42.413 36.2897 42.4145 35.6933 42.4155 35.0968C42.4176 34.2632 42.4227 33.4296 42.4288 32.5959C42.4289 32.3496 42.4291 32.1032 42.4292 31.8494C42.4513 29.6413 42.4513 29.6413 42.9556 28.5945C43.7373 28.0705 44.0181 28.0766 44.937 28.0736ZM44.5547 30.4324C44.5547 38.9232 44.5547 47.414 44.5547 56.1621C54.6562 56.1621 64.7578 56.1621 75.1654 56.1621C75.1654 47.6713 75.1654 39.1805 75.1654 30.4324C65.0639 30.4324 54.9624 30.4324 44.5547 30.4324Z" fill="black"/>
<path d="M59.1745 34.338C60.0311 34.2519 60.0311 34.2519 60.7736 34.338C60.868 34.5143 60.868 34.5143 60.9644 34.6942C62.2335 37.0564 63.5208 39.3936 64.9727 41.6485C66.147 43.5165 66.8212 45.4336 66.4845 47.6624C66.1897 48.4894 65.8038 49.2155 65.3423 49.9597C65.2151 50.1681 65.0879 50.3766 64.9568 50.5914C63.2906 52.2218 61.5491 52.7998 59.2735 52.7819C57.6758 52.6485 56.2035 52.0259 55.0626 50.8786C53.843 49.4118 53.3802 48.0375 53.3636 46.1117C53.3499 45.6586 53.3499 45.6586 53.3359 45.1964C53.4219 43.9519 53.9989 42.9847 54.6057 41.9191C54.7449 41.6744 54.8841 41.4298 55.0275 41.1777C55.4154 40.5063 55.8073 39.8379 56.2033 39.1715C56.4488 38.7583 56.6929 38.3443 56.937 37.9303C57.3746 37.19 57.8125 36.4503 58.2607 35.7164C58.4866 35.3343 58.4866 35.3343 58.7171 34.9445C58.9435 34.6443 58.9435 34.6443 59.1745 34.338Z" fill="#464646"/>
<path d="M56.4336 75C58.6951 75 60.9567 75 63.2867 75C63.2867 82.1262 63.2867 89.2524 63.2867 96.5946C61.0252 96.5946 58.7637 96.5946 56.4336 96.5946C56.4336 89.4684 56.4336 82.3422 56.4336 75Z" fill="#464646"/>
<path d="M59.1354 60.6957C61.6681 60.5577 64.2532 61.3102 66.2277 62.9535C67.0294 63.7633 67.3244 64.4128 67.4984 65.538C67.3069 66.9415 66.4244 68.1447 65.314 69.0055C64.3971 69.5433 63.3834 69.8625 62.3728 70.1757C62.1648 70.2427 62.1648 70.2427 61.9526 70.3112C59.3204 70.8138 56.3822 70.5056 54.0491 69.167C53.1014 68.5013 52.3549 67.7979 51.8647 66.7297C51.6892 65.605 51.7308 64.7243 52.2073 63.6858C54.18 61.5036 56.3017 60.9634 59.1354 60.6957Z" fill="#464646"/>
<path d="M59.6321 38.0137C60.5056 38.3065 60.5734 38.5835 61.0099 39.3813C61.1386 39.6137 61.2673 39.8462 61.3999 40.0857C61.5327 40.3306 61.6655 40.5755 61.8023 40.8279C62.0664 41.3077 62.3305 41.7875 62.5947 42.2673C62.7112 42.4811 62.8276 42.695 62.9476 42.9154C63.1773 43.3292 63.4173 43.7373 63.6664 44.1396C64.2494 45.161 64.1294 46.2953 63.9725 47.4326C63.507 48.625 62.7526 49.4851 61.6881 50.1893C60.3705 50.631 58.9743 50.6536 57.719 50.0458C56.4716 48.9108 55.7307 47.9603 55.6211 46.222C55.6375 44.2968 56.5905 42.8849 57.5619 41.3017C57.7366 41.0066 57.9108 40.7112 58.0844 40.4155C59.3145 38.3331 59.3145 38.3331 59.6321 38.0137Z" fill="black"/>
<path d="M64.4976 64.5125C64.8857 64.8921 64.8857 64.8921 65.0571 65.6243C64.8314 66.4755 64.4926 66.7877 63.7444 67.228C61.369 68.2255 58.1642 68.3931 55.7339 67.4622C55.0893 67.1562 54.6066 66.8242 54.1491 66.2705C54.0349 65.5956 54.0349 65.5956 54.1491 64.8921C56.7007 62.1705 61.6589 62.4748 64.4976 64.5125Z" fill="black"/>
<path d="M60.3166 88.0944C61.1741 89.1836 61.5397 90.3706 61.4588 91.7701C61.308 91.9975 61.1573 92.2249 61.0019 92.4593C61.0677 92.768 61.1463 93.074 61.2304 93.3782C61.2393 93.9141 61.2406 94.4504 61.2304 94.9863C60.5438 95.3315 60.1636 95.351 59.4029 95.216C58.8623 94.6724 58.5294 94.0959 58.2607 93.3782C58.2862 92.6071 58.4056 92.022 58.6462 91.2963C58.7536 90.6263 58.4757 90.1086 58.2607 89.4728C58.2321 88.6974 58.2321 88.6974 58.2607 88.0944C59.0143 87.7155 59.5208 87.8736 60.3166 88.0944Z" fill="#484848"/>
</g>
<defs>
<filter id="filter0_d_423_1601" x="0" y="0" width="124" height="124" filterUnits="userSpaceOnUse" color-interpolation-filters="sRGB">
<feFlood flood-opacity="0" result="BackgroundImageFix"/>
<feColorMatrix in="SourceAlpha" type="matrix" values="0 0 0 0 0 0 0 0 0 0 0 0 0 0 0 0 0 0 127 0" result="hardAlpha"/>
<feOffset dy="4"/>
<feGaussianBlur stdDeviation="2"/>
<feComposite in2="hardAlpha" operator="out"/>
<feColorMatrix type="matrix" values="0 0 0 0 0 0 0 0 0 0 0 0 0 0 0 0 0 0 0.25 0"/>
<feBlend mode="normal" in2="BackgroundImageFix" result="effect1_dropShadow_423_1601"/>
<feBlend mode="normal" in="SourceGraphic" in2="effect1_dropShadow_423_1601" result="shape"/>
</filter>
<clipPath id="clip0_423_1601">
<rect width="91" height="89.8333" fill="white" transform="translate(16 13)"/>
</clipPath>
</defs>
</svg>
