<svg width="124" height="124" viewBox="0 0 124 124" fill="none" xmlns="http://www.w3.org/2000/svg">
<g filter="url(#filter0_d_464_1379)">
<rect x="4" width="116" height="116" fill="white"/>
</g>
<path opacity="0.5" d="M65.125 94.8125C83.7301 94.8125 98.8125 79.7301 98.8125 61.125C98.8125 42.5199 83.7301 27.4375 65.125 27.4375C46.5199 27.4375 31.4375 42.5199 31.4375 61.125C31.4375 79.7301 46.5199 94.8125 65.125 94.8125Z" fill="#EF643B"/>
<path opacity="0.25" d="M44.2705 69.1457C54.902 69.1457 63.5205 60.1681 63.5205 49.0936C63.5205 38.0191 54.902 29.0415 44.2705 29.0415C33.6391 29.0415 25.0205 38.0191 25.0205 49.0936C25.0205 60.1681 33.6391 69.1457 44.2705 69.1457Z" fill="#C16AFF"/>
<path opacity="0.5" d="M73.1458 93.2085C85.5493 93.2085 95.6042 83.5126 95.6042 71.5522C95.6042 59.5919 85.5493 49.896 73.1458 49.896C60.7424 49.896 50.6875 59.5919 50.6875 71.5522C50.6875 83.5126 60.7424 93.2085 73.1458 93.2085Z" fill="#C16AFF"/>
<path opacity="0.5" d="M70.7399 77.1668C86.2442 77.1668 98.8128 64.5982 98.8128 49.0939C98.8128 33.5896 86.2442 21.021 70.7399 21.021C55.2356 21.021 42.667 33.5896 42.667 49.0939C42.667 64.5982 55.2356 77.1668 70.7399 77.1668Z" fill="#FFEB3B"/>
<path d="M63.6347 38.3788C61.5108 36.298 59.5605 34.4328 57.2569 33.0643C54.8002 31.6048 51.9593 30.7183 48.0874 30.669V30.6689H48.081H47.1464V30.6688L47.1351 30.6691C42.8526 30.7663 38.7498 32.407 35.5837 35.2886L35.5837 35.2886L35.5788 35.2931C33.9692 36.7977 32.6874 38.6175 31.8135 40.639C30.9398 42.6602 30.4927 44.8397 30.5001 47.0412V47.9415V47.9516L30.5005 47.9617C30.5825 49.9831 30.9392 51.984 31.561 53.9094L31.6728 54.2558H32.0368H35.4368H36.16L35.9046 53.5792C35.209 51.7366 34.8102 49.7957 34.7229 47.8285L34.7229 47.0886L34.7229 47.0859C34.7142 45.4519 35.0424 43.8336 35.6871 42.3317C36.3311 40.8313 37.2772 39.4792 38.4667 38.3594C40.8854 36.179 44.0073 34.9374 47.2651 34.8604H47.2656H47.2672H47.2688H47.2704H47.272H47.2736H47.2752H47.2768H47.2785H47.2801H47.2817H47.2833H47.2849H47.2864H47.288H47.2896H47.2912H47.2928H47.2944H47.296H47.2976H47.2992H47.3008H47.3024H47.304H47.3056H47.3072H47.3088H47.3104H47.312H47.3136H47.3152H47.3168H47.3184H47.3199H47.3215H47.3231H47.3247H47.3263H47.3279H47.3295H47.3311H47.3327H47.3343H47.3358H47.3374H47.339H47.3406H47.3422H47.3438H47.3454H47.347H47.3485H47.3501H47.3517H47.3533H47.3549H47.3565H47.358H47.3596H47.3612H47.3628H47.3644H47.366H47.3675H47.3691H47.3707H47.3723H47.3739H47.3754H47.377H47.3786H47.3802H47.3818H47.3833H47.3849H47.3865H47.3881H47.3896H47.3912H47.3928H47.3944H47.3959H47.3975H47.3991H47.4007H47.4022H47.4038H47.4054H47.407H47.4085H47.4101H47.4117H47.4132H47.4148H47.4164H47.418H47.4195H47.4211H47.4227H47.4242H47.4258H47.4274H47.429H47.4305H47.4321H47.4337H47.4352H47.4368H47.4384H47.4399H47.4415H47.4431H47.4446H47.4462H47.4477H47.4493H47.4509H47.4524H47.454H47.4556H47.4571H47.4587H47.4603H47.4618H47.4634H47.4649H47.4665H47.4681H47.4696H47.4712H47.4727H47.4743H47.4759H47.4774H47.479H47.4805H47.4821H47.4837H47.4852H47.4868H47.4883H47.4899H47.4914H47.493H47.4945H47.4961H47.4977H47.4992H47.5008H47.5023H47.5039H47.5054H47.507H47.5085H47.5101H47.5116H47.5132H47.5147H47.5163H47.5178H47.5194H47.521H47.5225H47.524H47.5256H47.5271H47.5287H47.5302H47.5318H47.5333H47.5349H47.5364H47.538H47.5395H47.5411H47.5426H47.5442H47.5457H47.5473H47.5488H47.5504H47.5519H47.5534H47.555H47.5565H47.5581H47.5596H47.5612H47.5627H47.5643H47.5658H47.5673H47.5689H47.5704H47.572H47.5735H47.575H47.5766H47.5781H47.5797H47.5812H47.5827H47.5843H47.5858H47.5874H47.5889H47.5904H47.592H47.5935H47.5951H47.5966H47.5981H47.5997H47.6012H47.6027H47.6043H47.6058H47.6073H47.6089H47.6104H47.6119H47.6135H47.615H47.6165H47.6181H47.6196H47.6211H47.6227H47.6242H47.6257H47.6273H47.6288H47.6303H47.6319H47.6334H47.6349H47.6365H47.638H47.6395H47.641H47.6426H47.6441H47.6456H47.6472H47.6487H47.6502H47.6517H47.6533H47.6548H47.6563H47.6579H47.6594H47.6609H47.6624H47.664H47.6655H47.667H47.6685H47.6701H47.6716H47.6731H47.6746H47.6762H47.6777H47.6792H47.6807H47.6823H47.6838H47.6853H47.6868H47.6883H47.6899H47.6914H47.6929H47.6944H47.6959H47.6975H47.699H47.7005H47.702H47.7035H47.7051H47.7066H47.7081H47.7096H47.7111H47.7127H47.7142H47.7157H47.7172H47.7187H47.7202H47.7218H47.7233H47.7248H47.7263H47.7278H47.7293H47.7309H47.7324H47.7339H47.7354H47.7369H47.7384H47.74H47.7415H47.743H47.7445H47.746H47.7475H47.749H47.7505H47.7521H47.7536H47.7551H47.7566H47.7581H47.7596H47.7611H47.7626H47.7641H47.7657H47.7672H47.7687H47.7702H47.7717H47.7732H47.7747H47.7762H47.7777H47.7792H47.7808H47.7823H47.7838H47.7853H47.7868H47.7883H47.7898H47.7913H47.7928H47.7943H47.7958H47.7973H47.7988H47.8003H47.8018H47.8034H47.8049H47.8064H47.8079H47.8094H47.8109H47.8124H47.8139H47.8154H47.8169H47.8184H47.8199H47.8214H47.8229H47.8244H47.8259H47.8274H47.8289H47.8304H47.8319H47.8334H47.8349H47.8364H47.8379H47.8394H47.8409H47.8424H47.8439H47.8454H47.8469H47.8484H47.8499H47.8514H47.8529H47.8544H47.8559H47.8574H47.8589H47.8604H47.8619H47.8634H47.8649H47.8664H47.8679H47.8694H47.8709H47.8724H47.8739H47.8754H47.8769H47.8784H47.8799H47.8814H47.8829H47.8844H47.8859H47.8873H47.8888H47.8903H47.8918H47.8933H47.8948H47.8963H47.8978H47.8993H47.9008H47.9023H47.9038H47.9053H47.9068H47.9083H47.9097H47.9112H47.9127H47.9142H47.9157H47.9172H47.9187H47.9202H47.9217H47.9232H47.9247H47.9262H47.9276H47.9291H47.9306H47.9321H47.9336H47.9351H47.9366H47.9381H47.9396H47.9411H47.9425H47.944H47.9455H47.947H47.9485H47.95H47.9515H47.953H47.9544H47.9559H47.9574H47.9589H47.9604H47.9619H47.9634H47.9649H47.9663H47.9678H47.9693H47.9708H47.9723H47.9738H47.9753H47.9767H47.9782H47.9797H47.9812H47.9827H47.9842H47.9856H47.9871H47.9886H47.9901H47.9916H47.9931H47.9946H47.996H47.9975H47.999H48.0005H48.002H48.0035H48.0049H48.0064H48.0079H48.0094H48.0109H48.0123H48.0138H48.0153H48.0168H48.0183H48.0198H48.0212H48.0227H48.0242H48.0257H48.0272H48.0286H48.0301H48.0316H48.0331H48.0346H48.036H48.0375H48.039H48.0405H48.0409C54.1099 34.9233 57.0266 37.7833 61.0677 41.7543L61.069 41.7556L62.2239 42.882L62.2266 42.8846C62.6275 43.2697 63.1642 43.4811 63.7201 43.4732C64.2759 43.4653 64.8064 43.2388 65.1962 42.8425L65.1962 42.8425L65.2022 42.8362L66.3946 41.5811L66.3954 41.5803C69.6972 38.0895 72.2904 35.3601 77.1957 34.7983C79.9809 34.4938 82.7947 35.0054 85.2936 36.2708L85.2958 36.2719C87.4093 37.3289 89.2468 38.8634 90.6625 40.7534L90.6628 40.7537C92.0492 42.6016 92.9269 44.7798 93.2088 47.0715C93.4503 49.2817 93.1117 51.5167 92.2262 53.5567L91.9228 54.2558H92.6849H96.1118H96.4678L96.5843 53.9194C97.3986 51.568 97.6749 49.0642 97.3928 46.5921L97.3925 46.5894C97.0302 43.5617 95.8741 40.6831 94.0412 38.2444C92.2336 35.8211 89.8808 33.8562 87.1727 32.5083C83.9475 30.8737 80.3146 30.215 76.7199 30.613L76.7175 30.6132C70.4226 31.3398 67.2395 34.5605 63.6347 38.3788ZM32.0744 58.2012H31.5744V58.7012V61.9195V62.4195H32.0744H49.2359H49.5145L49.6611 62.1825L51.1059 59.8464L57.1173 68.5857L57.6003 69.2878L57.9776 68.5237L63.3048 57.7356L68.6343 67.9596L68.9535 68.5718L69.4356 68.0776L74.5846 62.8003H95.9399H96.4399V62.3003V59.082V58.582H95.9399H73.0203H72.8099L72.6628 58.7324L69.9978 61.4572L63.6719 49.2931L63.217 48.4184L62.7801 49.3022L56.9959 61.0002L51.3286 52.7905L50.8945 52.1617L50.4921 52.8113L47.1527 58.2012H32.0744ZM86.3839 68.0488L87.1725 67.207H86.019H81.5178H81.3089L81.1621 67.3555C79.4685 69.0693 77.7408 70.7178 76.0991 72.2843C75.7997 72.5699 75.5031 72.8529 75.2102 73.133C73.7223 74.5544 72.3282 75.8927 71.1001 77.1083L71.0999 77.1085L63.669 84.4726L57.8008 78.8252L57.8007 78.8251C56.335 77.4153 54.8217 76.0171 53.2074 74.5662C50.7089 72.2967 48.0718 69.8927 45.5916 67.3573L45.4446 67.207H45.2342H40.8082H39.6776L40.4383 68.0434C43.5662 71.4824 47.0575 74.6638 50.2858 77.6055L50.3709 77.6831L50.3713 77.6834C51.994 79.1591 53.547 80.5761 54.8843 81.8582L54.8846 81.8585L62.2464 88.9042C62.2468 88.9046 62.2472 88.9049 62.2475 88.9053C62.6415 89.2868 63.1686 89.5 63.7171 89.5C64.2661 89.5 64.7937 89.2864 65.1878 88.9042L65.1915 88.9006L74.0864 80.0933C74.0864 80.0933 74.0864 80.0933 74.0865 80.0932C75.2645 78.9276 76.6576 77.5952 78.1516 76.1678L78.1533 76.1661C78.3527 75.9737 78.5541 75.7796 78.7571 75.5838C81.1332 73.2928 83.7413 70.7779 86.2221 68.2215L86.2221 68.2215L86.2281 68.2151L86.3839 68.0488Z" fill="black" stroke="black"/>
<defs>
<filter id="filter0_d_464_1379" x="0" y="0" width="124" height="124" filterUnits="userSpaceOnUse" color-interpolation-filters="sRGB">
<feFlood flood-opacity="0" result="BackgroundImageFix"/>
<feColorMatrix in="SourceAlpha" type="matrix" values="0 0 0 0 0 0 0 0 0 0 0 0 0 0 0 0 0 0 127 0" result="hardAlpha"/>
<feOffset dy="4"/>
<feGaussianBlur stdDeviation="2"/>
<feComposite in2="hardAlpha" operator="out"/>
<feColorMatrix type="matrix" values="0 0 0 0 0 0 0 0 0 0 0 0 0 0 0 0 0 0 0.25 0"/>
<feBlend mode="normal" in2="BackgroundImageFix" result="effect1_dropShadow_464_1379"/>
<feBlend mode="normal" in="SourceGraphic" in2="effect1_dropShadow_464_1379" result="shape"/>
</filter>
</defs>
</svg>
