<svg width="124" height="124" viewBox="0 0 124 124" fill="none" xmlns="http://www.w3.org/2000/svg">
<g filter="url(#filter0_d_423_1607)">
<rect x="4" width="116" height="116" fill="white"/>
</g>
<path opacity="0.25" d="M54.6986 94.8123C71.0888 94.8123 84.3757 81.1663 84.3757 64.3332C84.3757 47.5 71.0888 33.854 54.6986 33.854C38.3083 33.854 25.0215 47.5 25.0215 64.3332C25.0215 81.1663 38.3083 94.8123 54.6986 94.8123Z" fill="#C16AFF"/>
<path opacity="0.5" d="M53.0931 72.3543C66.8254 72.3543 77.9577 60.863 77.9577 46.6877C77.9577 32.5123 66.8254 21.021 53.0931 21.021C39.3608 21.021 28.2285 32.5123 28.2285 46.6877C28.2285 60.863 39.3608 72.3543 53.0931 72.3543Z" fill="#FFEB3B"/>
<path opacity="0.5" d="M84.3757 46.6873C90.5774 46.6873 95.6048 41.6599 95.6048 35.4582C95.6048 29.2565 90.5774 24.229 84.3757 24.229C78.1739 24.229 73.1465 29.2565 73.1465 35.4582C73.1465 41.6599 78.1739 46.6873 84.3757 46.6873Z" fill="#C16AFF"/>
<path opacity="0.5" d="M73.9486 93.2083C87.6809 93.2083 98.8132 81.717 98.8132 67.5417C98.8132 53.3663 87.6809 41.875 73.9486 41.875C60.2163 41.875 49.084 53.3663 49.084 67.5417C49.084 81.717 60.2163 93.2083 73.9486 93.2083Z" fill="#EF643B"/>
<path d="M83.6661 16.0096C83.888 16.0088 83.888 16.0088 84.1143 16.0079C84.4268 16.0075 84.7393 16.0086 85.0518 16.011C85.5302 16.0142 86.0083 16.0111 86.4867 16.0073C86.7904 16.0077 87.094 16.0085 87.3977 16.0096C87.5408 16.0084 87.6839 16.0073 87.8314 16.0061C88.8127 16.0195 88.8127 16.0195 89.2926 16.3411C89.6398 16.9092 89.5719 17.3819 89.493 18.0269C89.2152 18.4998 89.2152 18.4998 88.7201 18.8029C88.1246 18.8657 87.5831 18.8385 86.9811 18.8029C87.0767 19.7632 87.0767 19.7632 87.1743 20.7429C87.3566 20.7854 87.5389 20.8279 87.7268 20.8717C89.7865 21.3742 91.5412 22.1556 93.3574 23.2649C93.4849 23.0088 93.6124 22.7527 93.7438 22.4889C93.6163 22.3608 93.4888 22.2328 93.3574 22.1009C93.2738 21.3458 93.2456 20.9112 93.6714 20.27C94.1303 19.9669 94.1303 19.9669 94.6616 19.8335C95.628 20.0388 96.148 20.6397 96.8354 21.3249C96.9933 21.4784 97.1512 21.632 97.3139 21.7902C98.7389 23.1936 98.7389 23.1936 98.828 24.0166C98.7676 24.6229 98.7676 24.6229 98.4657 25.0836C97.8224 25.5142 97.4015 25.4805 96.6422 25.3989C96.1712 25.2049 96.1712 25.2049 95.8693 25.0109C95.8055 25.2029 95.7418 25.395 95.6761 25.5929C95.9601 26.0459 95.9601 26.0459 96.3644 26.5265C98.583 29.49 99.3279 33.1448 98.8703 36.7902C98.2178 40.5646 96.2905 43.9309 93.1642 46.187C90.7812 47.7284 88.3911 48.4348 85.6285 48.8727C85.7222 49.1105 85.8158 49.3484 85.9123 49.5934C90.2433 60.7123 92.4502 72.6238 93.5265 84.4836C93.5384 84.6143 93.5503 84.745 93.5626 84.8796C93.9747 89.4839 93.9747 89.4839 92.971 91.1644C92.0876 92.1853 91.1881 92.8088 89.8326 92.9582C87.3726 93.0851 85.4091 91.5705 83.4144 90.3062C81.4014 89.0585 79.3474 88.2985 77.0664 87.7088C72.5178 86.4527 68.712 83.8318 66.3526 79.6681C63.6343 74.6193 63.8048 68.5089 64.0722 62.9134C64.0798 62.7549 64.0873 62.5963 64.0951 62.433C64.2412 59.6989 64.2412 59.6989 64.7968 59.0455C65.3402 58.7667 65.3402 58.7667 65.944 58.7788C66.5208 58.9676 66.7182 59.0684 67.0792 59.5426C67.1463 59.9842 67.1463 59.9842 67.1389 60.5088C67.1376 60.706 67.1363 60.9031 67.135 61.1063C67.1308 61.3203 67.1266 61.5342 67.1222 61.7547C67.1196 62.0884 67.1196 62.0884 67.117 62.4289C67.1112 63.1442 67.1016 63.8593 67.0913 64.5745C66.8895 73.3753 66.8895 73.3753 71.0938 80.837C71.2356 80.9801 71.3773 81.1231 71.5233 81.2705C71.6911 81.4491 71.6911 81.4491 71.8622 81.6312C73.9378 83.6639 76.6769 84.5175 79.4113 85.2297C81.1777 85.7004 82.6964 86.3753 84.276 87.2845C84.5206 87.4211 84.7654 87.5575 85.0104 87.6937C85.9762 88.2361 86.9236 88.7926 87.8385 89.4185C88.5313 89.8579 89.0555 89.9496 89.8794 89.8065C90.4002 89.4035 90.6269 89.1799 90.7388 88.5215C90.682 86.7172 90.5328 84.9316 90.3383 83.1377C90.3214 82.9792 90.3044 82.8206 90.287 82.6572C89.0799 71.456 87.0722 59.8364 82.5785 49.4479C82.3437 48.8727 82.3437 48.8727 82.3437 48.4847C82.1397 48.4453 82.1397 48.4453 81.9316 48.4051C79.5392 47.8815 77.4075 46.8276 75.581 45.1867C75.4365 45.0597 75.292 44.9327 75.1432 44.8018C73.4846 43.2498 72.139 41.187 71.5233 38.9788C71.5233 38.7227 71.5233 38.4666 71.5233 38.2028C71.3958 38.2028 71.2683 38.2028 71.1369 38.2028C71.099 38.3942 71.099 38.3942 71.0604 38.5895C70.8532 39.637 70.6446 40.6842 70.4342 41.7311C70.2713 42.5426 70.1132 43.3546 69.9617 44.1682C69.8986 44.4956 69.8354 44.823 69.7722 45.1504C69.7456 45.3006 69.7191 45.4509 69.6917 45.6057C69.5223 46.4633 69.3381 46.9896 68.625 47.5147C67.9709 47.6105 67.6078 47.588 67.0188 47.2843C66.5923 46.8244 66.5633 46.5911 66.4995 45.9627C66.5599 45.3782 66.6746 44.8074 66.7916 44.2319C66.8244 44.0652 66.8571 43.8984 66.8909 43.7267C66.9606 43.3743 67.0313 43.0221 67.1029 42.6701C67.211 42.1363 67.3149 41.6019 67.4185 41.0673C67.487 40.7237 67.5558 40.3802 67.6249 40.0367C67.6553 39.879 67.6858 39.7213 67.7171 39.5588C68.0506 37.9492 68.5967 36.4568 69.7843 35.2928C70.4244 35.026 70.4244 35.026 70.9436 34.9048C70.9257 34.6107 70.9257 34.6107 70.9074 34.3107C70.9176 31.4267 71.9567 28.7769 73.5801 26.4416C73.9058 25.9569 73.9058 25.9569 73.842 25.2049C73.6507 25.2049 73.4594 25.2049 73.2623 25.2049C73.1985 25.2689 73.1348 25.3329 73.0691 25.3989C71.6679 25.5123 71.6679 25.5123 71.1369 25.0957C70.8551 24.4062 70.8371 24.0116 70.9436 23.2649C71.3825 22.6505 71.9147 22.1532 72.4653 21.6401C72.6095 21.4998 72.7537 21.3595 72.9023 21.215C74.168 19.9946 74.168 19.9946 74.9772 19.9063C75.581 19.9669 75.581 19.9669 76.0399 20.2821C76.4458 20.8778 76.4405 21.1964 76.3539 21.9069C76.2263 22.2307 76.0977 22.5541 75.9674 22.8769C76.0312 23.0689 76.0949 23.261 76.1606 23.4589C76.3639 23.3463 76.3639 23.3463 76.5712 23.2315C76.954 23.0206 77.3374 22.811 77.7215 22.6025C78.0395 22.4293 78.3564 22.254 78.6695 22.0721C80.2876 21.1735 82.2432 20.6763 84.0827 20.7429C84.0827 20.1027 84.0827 19.4625 84.0827 18.8029C83.6284 18.8329 83.6284 18.8329 83.1649 18.8635C82.2252 18.8622 82.2252 18.8622 81.6312 18.3907C81.3181 17.702 81.3387 17.3838 81.5709 16.6689C82.0725 15.8888 82.8306 16.0027 83.6661 16.0096ZM76.7403 27.1448C76.5733 27.3091 76.5733 27.3091 76.4029 27.4768C74.4776 29.5354 73.7405 32.3542 73.7745 35.1125C73.885 38.2614 75.2611 40.8901 77.5132 43.0527C78.9902 44.3886 80.9417 45.4771 82.9234 45.7687C83.0955 45.7945 83.2676 45.8202 83.445 45.8468C86.5482 46.2093 89.4634 45.3733 91.9226 43.4438C92.0772 43.3147 92.2319 43.1857 92.3913 43.0527C92.5161 42.9517 92.6409 42.8507 92.7694 42.7466C94.6975 41.0161 95.9327 38.1556 96.1085 35.5914C96.1745 32.1 95.2351 29.2456 92.8019 26.672C90.5593 24.5477 87.5874 23.3278 84.4918 23.3982C81.3688 23.7126 78.9611 24.919 76.7403 27.1448Z" fill="black"/>
<path d="M56.0658 25.3989C56.5642 26.0688 56.7181 26.5559 56.7191 27.3849C56.7207 27.5857 56.7224 27.7864 56.724 27.9932C56.7223 28.3203 56.7223 28.3203 56.7205 28.6541C56.722 29.0011 56.722 29.0011 56.7236 29.3551C56.7257 29.988 56.7252 30.6208 56.7234 31.2537C56.7219 31.9169 56.7232 32.58 56.7242 33.2432C56.7252 34.3567 56.7238 35.4702 56.7211 36.5837C56.7179 37.8701 56.7189 39.1564 56.7221 40.4428C56.7248 41.5483 56.7251 42.6538 56.7236 43.7593C56.7227 44.4192 56.7226 45.079 56.7245 45.7388C56.726 46.4744 56.7237 47.21 56.7205 47.9456C56.7217 48.1637 56.7228 48.3818 56.724 48.6066C56.7216 48.9076 56.7216 48.9076 56.7191 49.2148C56.7189 49.3886 56.7187 49.5624 56.7184 49.7415C56.628 50.3484 56.4321 50.7121 56.0658 51.2008C55.5665 51.3491 55.1512 51.432 54.6408 51.4918C54.3428 51.5362 54.0449 51.5817 53.7472 51.6282C53.511 51.6644 53.511 51.6644 53.2701 51.7013C50.3232 52.1922 47.2937 52.9946 44.608 54.3319C43.646 54.8073 43.0324 55.0283 41.9606 54.6928C41.5156 54.4059 41.1405 54.1341 40.7409 53.7955C40.5222 53.6197 40.3033 53.4442 40.0842 53.2688C39.9772 53.1818 39.8702 53.0948 39.7599 53.0052C39.3119 52.6418 38.8594 52.2867 38.3981 51.9404C38.2549 51.8296 38.1116 51.7188 37.9641 51.6047C37.3617 51.3222 36.9885 51.4203 36.3572 51.5888C36.1124 51.7994 36.1124 51.7994 36.0553 52.292C36.2245 53.3116 36.9139 53.7042 37.7097 54.3048C37.8691 54.417 38.0285 54.5293 38.1928 54.645C39.3764 55.4963 39.3764 55.4963 39.7386 56.3296C39.5932 57.3694 39.0128 57.8503 38.2894 58.5727C36.3517 60.591 34.6182 63.0167 33.8453 65.7507C33.8953 66.4873 33.8953 66.4873 34.0385 67.1087C34.5907 67.2416 34.5907 67.2416 35.1978 67.3027C35.9242 66.8165 36.0742 66.2784 36.3813 65.4961C38.3436 60.788 42.1359 57.7518 46.7376 55.8355C52.5245 53.5633 58.7141 53.0039 64.7608 54.4988C64.9253 54.5393 65.0898 54.5798 65.2593 54.6216C70.594 55.9852 75.5438 58.6366 78.4683 63.4765C78.9652 64.3435 79.3692 65.2607 79.7244 66.195C79.879 66.5961 79.879 66.5961 80.2186 67.1087C80.8275 67.3022 81.1693 67.404 81.7523 67.1208C82.081 66.4802 81.9129 65.8474 81.7643 65.1687C81.5715 64.6362 81.3268 64.1417 81.0639 63.641C80.9597 63.4382 80.9597 63.4382 80.8533 63.2313C79.7867 61.197 78.4151 59.475 76.7949 57.8521C76.3196 57.3523 76.1634 57.0904 76.1383 56.391C76.4453 55.3551 77.0568 54.9574 77.8999 54.329C78.0449 54.2165 78.1898 54.1039 78.3392 53.988C78.6058 53.7812 78.8736 53.5759 79.143 53.3728C79.437 53.1581 79.437 53.1581 79.6389 52.9468C79.5834 52.4929 79.5192 52.04 79.4457 51.5888C78.7788 51.4126 78.4273 51.3211 77.8033 51.6471C77.6439 51.7759 77.4845 51.9047 77.3202 52.0374C77.1379 52.1784 76.9556 52.3195 76.7677 52.4648C76.5654 52.6253 76.3631 52.786 76.1609 52.9468C75.6981 53.3122 75.2306 53.6705 74.76 54.0259C74.6507 54.1139 74.5414 54.2018 74.4287 54.2925C73.8523 54.7258 73.517 54.8872 72.7908 54.8822C72.0341 54.6737 71.3321 54.3951 70.6179 54.0744C67.7186 52.8373 64.8333 52.0834 61.7127 51.6455C61.517 51.6178 61.3214 51.59 61.1198 51.5615C60.9461 51.5384 60.7723 51.5154 60.5933 51.4916C60.106 51.3912 59.7652 51.2831 59.3506 51.0068C58.9765 50.4055 58.9154 49.9406 58.9138 49.2381C58.9124 49.0377 58.911 48.8372 58.9096 48.6307C58.9101 48.4119 58.9106 48.1931 58.9111 47.9676C58.9101 47.7363 58.9091 47.5051 58.9081 47.2668C58.9059 46.633 58.9054 45.9994 58.9059 45.3657C58.9061 44.8363 58.9051 44.307 58.9042 43.7776C58.9021 42.5286 58.902 41.2796 58.9032 40.0306C58.9043 38.7429 58.9019 37.4551 58.8978 36.1673C58.8944 35.061 58.8933 33.9546 58.8939 32.8483C58.8942 32.1878 58.8937 31.5274 58.8911 30.8669C58.8887 30.1303 58.89 29.3938 58.8922 28.6572C58.8907 28.4388 58.8893 28.2203 58.8877 27.9953C58.8891 27.7943 58.8904 27.5933 58.8918 27.3863C58.8918 27.2122 58.8918 27.0381 58.8917 26.8588C58.9816 26.2507 59.1769 25.8885 59.5438 25.3989C60.1959 25.1807 60.1959 25.1807 60.8964 25.2049C61.4163 25.5555 61.4163 25.5555 61.8625 26.1749C62.0021 26.9003 61.9845 27.6142 61.9722 28.3508C61.9724 28.6803 61.9724 28.6803 61.9726 29.0164C61.9719 29.7418 61.9644 30.467 61.9568 31.1924C61.955 31.6955 61.9537 32.1987 61.9527 32.7019C61.9494 33.8905 61.9418 35.079 61.9321 36.2676C61.9213 37.6211 61.9159 38.9747 61.9111 40.3282C61.901 43.1118 61.884 45.8953 61.8625 48.6788C62.0762 48.6967 62.0762 48.6967 62.2942 48.715C62.5773 48.7396 62.5773 48.7396 62.8661 48.7648C63.0524 48.7807 63.2387 48.7967 63.4306 48.8131C64.2649 48.9025 65.0692 49.0753 65.8839 49.2729C66.0544 49.3137 66.2248 49.3546 66.4005 49.3966C68.285 49.8699 70.0945 50.5441 71.9048 51.2457C72.2258 51.3679 72.5505 51.4798 72.8761 51.5888C73.3046 51.3039 73.6883 51.0172 74.0838 50.6915C74.3106 50.5111 74.5376 50.3307 74.7646 50.1505C74.9724 49.9833 75.1803 49.8161 75.388 49.6488C76.5539 48.7233 77.5436 48.223 79.0592 48.3151C80.256 48.4737 81.1028 48.9083 81.9213 49.8185C82.6898 50.9208 82.9299 52.0099 82.7305 53.3348C82.2436 54.8868 81.3565 55.7534 80.0253 56.6327C80.0889 56.7178 80.1524 56.8028 80.2178 56.8904C80.4187 57.1593 80.6186 57.4289 80.8179 57.699C81.0678 58.03 81.3248 58.3558 81.5877 58.6766C83.2925 60.8116 85.3377 64.0656 85.0491 66.9147C84.7322 68.1796 84.271 69.077 83.1697 69.8004C82.1446 70.3097 81.1052 70.5232 79.977 70.2854C78.7945 69.8501 78.0494 69.2968 77.3202 68.2727C77.1016 67.7851 76.8993 67.3021 76.7043 66.8056C75.1251 63.0159 72.1578 60.5842 68.4803 58.9244C65.4826 57.6964 62.2048 56.8334 58.9642 56.6327C58.8209 56.6225 58.6777 56.6122 58.5302 56.6017C52.8928 56.3986 46.6509 58.4175 42.3471 62.0647C40.6982 63.6327 39.5788 65.4457 38.7725 67.5694C38.2453 68.9038 37.4597 69.6339 36.164 70.2127C34.7542 70.4957 33.7378 70.3593 32.4565 69.7034C31.4502 68.8502 30.8134 67.7679 30.6934 66.4418C30.7651 63.1304 33.191 59.8637 35.1978 57.4087C35.3926 57.1513 35.5866 56.8931 35.7775 56.6327C35.6632 56.5572 35.5489 56.4817 35.4311 56.4039C34.2443 55.5603 33.5169 54.7404 33.0724 53.3348C32.8773 52.1861 33.0443 51.0375 33.6521 50.0368C34.6756 48.861 35.6567 48.3905 37.2025 48.2181C38.6943 48.373 39.7274 49.0904 40.8053 50.0915C41.4603 50.6851 42.1124 51.2333 42.9267 51.5888C43.9651 51.5156 44.6943 51.1222 45.5983 50.6322C46.3504 50.2607 47.1473 50.0395 47.9505 49.8064C48.1126 49.758 48.2747 49.7097 48.4417 49.6598C50.1552 49.1597 51.9558 48.6788 53.7472 48.6788C53.7466 48.5635 53.7461 48.4483 53.7455 48.3295C53.7327 45.5252 53.7231 42.7209 53.7171 39.9166C53.7141 38.5604 53.7101 37.2043 53.7034 35.8482C53.697 34.54 53.6937 33.2318 53.6922 31.9236C53.6911 31.424 53.689 30.9243 53.6859 30.4246C53.6817 29.726 53.6811 29.0275 53.6814 28.3288C53.6793 28.1212 53.6772 27.9135 53.675 27.6996C53.6758 27.5092 53.6766 27.3188 53.6775 27.1226C53.6769 26.9574 53.6764 26.7921 53.6758 26.6219C53.7644 26.0672 53.9443 25.8043 54.3268 25.3989C55.0205 25.1668 55.3669 25.1943 56.0658 25.3989Z" fill="black"/>
<path d="M45.9462 35.2321C46.1734 35.4541 46.1734 35.4541 46.4051 35.6807C46.5406 35.8087 46.6761 35.9368 46.8157 36.0687C47.9139 37.8329 48.2189 40.0572 48.6083 42.0742C48.7004 42.5473 48.7973 43.0193 48.8944 43.4914C48.954 43.7952 49.0134 44.0991 49.0725 44.4031C49.1017 44.5425 49.1308 44.682 49.1609 44.8257C49.325 45.7074 49.3065 46.3141 48.917 47.1266C48.2424 47.5782 47.9717 47.6122 47.178 47.5146C46.2844 46.8708 46.1944 46.0799 46.0119 45.0555C45.9801 44.8919 45.9482 44.7283 45.9154 44.5597C45.8142 44.0377 45.7169 43.515 45.6202 42.992C45.5222 42.4713 45.4234 41.9508 45.3229 41.4306C45.2606 41.1074 45.1998 40.784 45.1409 40.4602C44.9593 39.5087 44.6911 38.6918 44.2797 37.8147C41.672 38.0086 39.8503 39.2517 38.0845 41.1369C34.9859 44.808 33.1061 49.4328 31.527 53.9166C31.4601 54.1053 31.3932 54.2941 31.3243 54.4885C28.05 63.8653 26.3561 73.9032 25.3802 83.7681C25.3562 84.0077 25.3322 84.2472 25.3075 84.494C25.2028 85.6252 25.1241 86.7566 25.0881 87.8921C25.0812 88.0925 25.0743 88.2928 25.0672 88.4992C25.1735 89.1755 25.3872 89.3964 25.9236 89.8064C27.04 89.9758 27.733 89.6325 28.6408 89.0304C28.8958 88.8695 29.1509 88.7088 29.4061 88.5484C29.5341 88.4668 29.6621 88.3851 29.7939 88.301C32.259 86.7426 34.71 85.666 37.5169 84.8715C39.9492 84.1795 41.9722 83.3592 43.8932 81.6584C44.1107 81.4675 44.1107 81.4675 44.3325 81.2727C47.5381 78.2684 48.4702 74.2521 48.7238 70.0185C48.7413 69.1853 48.7332 68.3533 48.7223 67.52C48.7189 67.0528 48.7156 66.5856 48.7125 66.1184C48.7065 65.3904 48.6995 64.6624 48.6907 63.9344C48.6825 63.226 48.678 62.5176 48.674 61.8092C48.6686 61.4809 48.6686 61.4809 48.6631 61.146C48.6624 60.9438 48.6617 60.7416 48.6611 60.5333C48.6582 60.2667 48.6582 60.2667 48.6554 59.9946C48.7378 59.4498 48.8686 59.2867 49.3035 58.9606C49.859 58.7787 49.859 58.7787 50.4628 58.7666C51.0062 59.0454 51.0062 59.0454 51.4289 59.5426C51.6258 60.7031 51.6785 61.8717 51.7308 63.0467C51.7389 63.2263 51.7469 63.406 51.7552 63.5911C52.0477 70.509 51.8504 77.6116 46.9788 83.0096C44.3489 85.7823 41.1391 87.026 37.5432 88.0484C35.3333 88.682 33.4599 89.5395 31.527 90.7764C31.1242 91.0243 30.7201 91.2699 30.3152 91.5145C30.0702 91.6631 29.8262 91.8135 29.5835 91.9661C28.2595 92.7873 27.0773 93.0946 25.5372 92.9103C24.243 92.562 23.3578 91.9078 22.6388 90.7764C21.6018 88.8794 22.0929 86.5662 22.2886 84.5078C22.3012 84.3747 22.3138 84.2416 22.3268 84.1045C23.3067 73.8771 25.0794 63.7013 28.2423 53.9166C28.3102 53.706 28.3781 53.4953 28.448 53.2783C30.5185 46.9596 33.663 39.1894 39.8356 35.8747C41.7188 35.0024 43.9565 34.3021 45.9462 35.2321Z" fill="black"/>
<path d="M63.9559 84.4236C64.8247 85.099 65.4396 85.8189 65.7266 86.8963C65.8791 88.2478 65.9455 89.6279 65.2247 90.8256C64.4671 91.7727 63.6096 92.5469 62.4418 92.9103C60.9277 93.0665 59.4238 93.1285 58.1909 92.1343C57.2161 91.2022 56.5281 90.3569 56.387 88.978C56.3688 87.3233 56.4349 86.1931 57.5796 84.9632C59.3743 83.2751 61.8789 82.9994 63.9559 84.4236ZM59.7367 86.8963C59.2765 87.4478 59.157 87.7274 59.157 88.4483C59.4042 89.1928 59.7011 89.5199 60.3164 90.0003C61.0067 90.2314 61.3222 90.2588 61.995 89.9761C62.5072 89.5591 62.7663 89.2542 63.0215 88.6423C63.0215 87.859 62.8831 87.5472 62.3935 86.9327C61.398 86.1377 60.7959 86.2028 59.7367 86.8963Z" fill="black"/>
<path d="M85.7496 26.5386C86.4018 26.7568 86.4018 26.7568 86.7276 27.1456C87.0741 27.939 87.0646 28.6276 87.0584 29.4849C87.059 29.6535 87.0595 29.8221 87.0601 29.9957C87.0605 30.3512 87.0594 30.7067 87.057 31.0621C87.0539 31.605 87.057 32.1476 87.0607 32.6905C87.0603 33.0365 87.0596 33.3826 87.0584 33.7287C87.0602 33.9712 87.0602 33.9712 87.062 34.2186C87.0512 35.1204 87.0047 35.7411 86.4018 36.4568C85.8809 36.8487 85.8809 36.8487 85.2598 37.2237C85.15 37.2907 85.0403 37.3578 84.9272 37.4269C84.5786 37.6391 84.2283 37.8482 83.8778 38.0573C83.6416 38.2005 83.4054 38.344 83.1695 38.4877C80.9047 39.8624 80.9047 39.8624 79.8322 39.7547C79.2051 39.3405 79.0814 39.069 78.9023 38.3361C79.1074 37.4018 79.4587 37.1695 80.2202 36.6333C83.5224 34.5168 83.5224 34.5168 84.0831 34.5168C84.078 34.3103 84.073 34.1038 84.0678 33.8911C84.0503 33.1228 84.0392 32.3546 84.03 31.5862C84.0252 31.254 84.0186 30.9219 84.0102 30.5899C83.9985 30.1116 83.993 29.6336 83.9888 29.1553C83.9838 29.0075 83.9788 28.8598 83.9737 28.7075C83.9732 27.9304 84.0529 27.5724 84.5283 26.9479C85.0492 26.5628 85.0492 26.5628 85.7496 26.5386Z" fill="black"/>
<path d="M38.8692 25.3991C39.2709 25.7522 39.4301 26.0398 39.5038 26.5716C39.5271 27.0551 39.5279 27.534 39.5213 28.0181C39.5236 28.1839 39.5258 28.3497 39.5281 28.5205C39.5248 29.2263 39.522 29.7225 39.1892 30.3529C38.7085 30.7797 38.3444 30.8183 37.7099 30.8311C37.1664 30.5886 37.1664 30.5886 36.7437 30.2491C36.4849 29.4695 36.5074 28.7495 36.5022 27.9332C36.4982 27.7758 36.4942 27.6184 36.4901 27.4562C36.4826 26.3036 36.4826 26.3036 36.8071 25.6893C37.4725 25.0915 38.0534 25.1773 38.8692 25.3991Z" fill="black"/>
<path d="M38.8697 17.4451C39.2714 17.7983 39.4306 18.0858 39.5043 18.6176C39.5275 19.1011 39.5284 19.5801 39.5218 20.0641C39.524 20.2299 39.5263 20.3957 39.5286 20.5665C39.5253 21.2723 39.5225 21.7685 39.1897 22.3989C38.709 22.8258 38.3449 22.8643 37.7104 22.8771C37.1669 22.6346 37.1669 22.6346 36.7442 22.2951C36.4991 21.5567 36.5079 20.8578 36.5027 20.0883C36.4987 19.9418 36.4947 19.7953 36.4906 19.6443C36.4844 18.7554 36.5431 18.1591 37.1307 17.4451C37.8202 17.2143 38.1725 17.2555 38.8697 17.4451Z" fill="black"/>
<path d="M42.0693 22.586C42.2545 22.583 42.4397 22.58 42.6305 22.577C42.8082 22.578 42.986 22.579 43.1691 22.58C43.3311 22.5809 43.4931 22.5817 43.6601 22.5826C44.0861 22.683 44.0861 22.683 44.428 23.0411C44.7539 23.614 44.7601 23.9734 44.6658 24.623C44.3948 25.0413 44.3948 25.0413 43.8929 25.399C43.2472 25.5151 42.615 25.5073 41.9607 25.496C41.6991 25.5005 41.6991 25.5005 41.4323 25.5051C40.1666 25.4976 40.1666 25.4976 39.5273 25.0413C39.154 24.4667 39.1439 24.1319 39.2556 23.459C39.927 22.3988 40.9451 22.5678 42.0693 22.586Z" fill="black"/>
<path d="M34.1475 22.586C34.3327 22.583 34.5178 22.58 34.7086 22.577C34.8864 22.578 35.0641 22.579 35.2472 22.58C35.4092 22.5809 35.5713 22.5817 35.7382 22.5826C36.1642 22.683 36.1642 22.683 36.5061 23.0411C36.832 23.614 36.8382 23.9734 36.7439 24.623C36.4729 25.0413 36.4729 25.0413 35.971 25.399C35.3253 25.5151 34.6931 25.5073 34.0388 25.496C33.7773 25.5005 33.7773 25.5005 33.5104 25.5051C32.2447 25.4976 32.2447 25.4976 31.6054 25.0413C31.2321 24.4667 31.222 24.1319 31.3337 23.459C32.0052 22.3988 33.0232 22.5678 34.1475 22.586Z" fill="black"/>
<path d="M26.6966 35.8749C27.1555 36.0689 27.1555 36.0689 27.4695 36.4569C27.5979 37.1521 27.6133 37.7733 27.24 38.3848C26.7784 38.6565 26.4615 38.7592 25.9237 38.7849C25.4826 38.5634 25.1141 38.36 24.7644 38.0089C24.6941 37.2605 24.6562 36.8139 25.0784 36.178C25.6722 35.7858 25.9976 35.7726 26.6966 35.8749Z" fill="black"/>
<defs>
<filter id="filter0_d_423_1607" x="0" y="0" width="124" height="124" filterUnits="userSpaceOnUse" color-interpolation-filters="sRGB">
<feFlood flood-opacity="0" result="BackgroundImageFix"/>
<feColorMatrix in="SourceAlpha" type="matrix" values="0 0 0 0 0 0 0 0 0 0 0 0 0 0 0 0 0 0 127 0" result="hardAlpha"/>
<feOffset dy="4"/>
<feGaussianBlur stdDeviation="2"/>
<feComposite in2="hardAlpha" operator="out"/>
<feColorMatrix type="matrix" values="0 0 0 0 0 0 0 0 0 0 0 0 0 0 0 0 0 0 0.25 0"/>
<feBlend mode="normal" in2="BackgroundImageFix" result="effect1_dropShadow_423_1607"/>
<feBlend mode="normal" in="SourceGraphic" in2="effect1_dropShadow_423_1607" result="shape"/>
</filter>
</defs>
</svg>
