<svg width="124" height="124" viewBox="0 0 124 124" fill="none" xmlns="http://www.w3.org/2000/svg">
<g filter="url(#filter0_d_466_1460)">
<rect x="4" width="116" height="116" fill="white"/>
</g>
<path opacity="0.25" d="M57.4375 85.1875C75.8354 85.1875 90.75 71.1825 90.75 53.9062C90.75 36.63 75.8354 22.625 57.4375 22.625C39.0396 22.625 24.125 36.63 24.125 53.9062C24.125 71.1825 39.0396 85.1875 57.4375 85.1875Z" fill="#C16AFF"/>
<path opacity="0.5" d="M72.6475 71.9048C80.599 71.9048 87.045 65.5414 87.045 57.6919C87.045 49.8424 80.599 43.479 72.6475 43.479C64.6961 43.479 58.25 49.8424 58.25 57.6919C58.25 65.5414 64.6961 71.9048 72.6475 71.9048Z" fill="#C16AFF"/>
<path opacity="0.5" d="M72.875 91.6043C87.2345 91.6043 98.875 80.113 98.875 65.9377C98.875 51.7623 87.2345 40.271 72.875 40.271C58.5155 40.271 46.875 51.7623 46.875 65.9377C46.875 80.113 58.5155 91.6043 72.875 91.6043Z" fill="#EF643B"/>
<path opacity="0.5" d="M71.25 75.5625C85.6095 75.5625 97.25 63.712 97.25 49.0938C97.25 34.4755 85.6095 22.625 71.25 22.625C56.8905 22.625 45.25 34.4755 45.25 49.0938C45.25 63.712 56.8905 75.5625 71.25 75.5625Z" fill="#FFEB3B"/>
<path d="M34.93 38.5864C35.8681 38.5864 36.6286 37.7836 36.6286 36.7932C36.6286 35.8028 35.8681 35 34.93 35C33.9919 35 33.2314 35.8028 33.2314 36.7932C33.2314 37.7836 33.9919 38.5864 34.93 38.5864Z" fill="white" stroke="black" stroke-width="10" stroke-miterlimit="10"/>
<path d="M51.9671 43.1469C52.9052 43.1469 53.6657 42.3441 53.6657 41.3537C53.6657 40.3634 52.9052 39.5605 51.9671 39.5605C51.029 39.5605 50.2686 40.3634 50.2686 41.3537C50.2686 42.3441 51.029 43.1469 51.9671 43.1469Z" fill="white" stroke="black" stroke-width="10" stroke-miterlimit="10"/>
<path d="M68.5472 29.5498C69.4853 29.5498 70.2458 28.7469 70.2458 27.7566C70.2458 26.7662 69.4853 25.9634 68.5472 25.9634C67.6091 25.9634 66.8486 26.7662 66.8486 27.7566C66.8486 28.7469 67.6091 29.5498 68.5472 29.5498Z" fill="white" stroke="black" stroke-width="10" stroke-miterlimit="10"/>
<path d="M86.1273 24.5864C87.0654 24.5864 87.8259 23.7836 87.8259 22.7932C87.8259 21.8028 87.0654 21 86.1273 21C85.1892 21 84.4287 21.8028 84.4287 22.7932C84.4287 23.7836 85.1892 24.5864 86.1273 24.5864Z" fill="white" stroke="black" stroke-width="10" stroke-miterlimit="10"/>
<path d="M34.93 38.5864C35.8681 38.5864 36.6286 37.7836 36.6286 36.7932C36.6286 35.8028 35.8681 35 34.93 35C33.9919 35 33.2314 35.8028 33.2314 36.7932C33.2314 37.7836 33.9919 38.5864 34.93 38.5864Z" fill="white"/>
<path d="M51.9671 43.1469C52.9052 43.1469 53.6657 42.3441 53.6657 41.3537C53.6657 40.3634 52.9052 39.5605 51.9671 39.5605C51.029 39.5605 50.2686 40.3634 50.2686 41.3537C50.2686 42.3441 51.029 43.1469 51.9671 43.1469Z" fill="white"/>
<path d="M68.5472 29.5498C69.4853 29.5498 70.2458 28.7469 70.2458 27.7566C70.2458 26.7662 69.4853 25.9634 68.5472 25.9634C67.6091 25.9634 66.8486 26.7662 66.8486 27.7566C66.8486 28.7469 67.6091 29.5498 68.5472 29.5498Z" fill="white"/>
<path d="M86.1273 24.5864C87.0654 24.5864 87.8259 23.7836 87.8259 22.7932C87.8259 21.8028 87.0654 21 86.1273 21C85.1892 21 84.4287 21.8028 84.4287 22.7932C84.4287 23.7836 85.1892 24.5864 86.1273 24.5864Z" fill="white"/>
<path d="M50.0981 39.3969L37.6377 36.6895L37.2802 38.5233L49.7406 41.2307L50.0981 39.3969Z" fill="black"/>
<path d="M83.0716 22.0666L71.0244 26.3813L71.5942 28.1543L83.6414 23.8395L83.0716 22.0666Z" fill="black"/>
<path d="M65.5366 29.359L54.04 38.1997L55.0842 39.713L66.5807 30.8724L65.5366 29.359Z" fill="black"/>
<path d="M66.9588 50V49.0412L72.8395 40.2628H66.8949V39.0909H74.4162V40.0497L68.5355 48.8281H74.4801V50H66.9588Z" fill="black"/>
<path d="M66.9588 50H66.3976V50.5612H66.9588V50ZM66.9588 49.0412L66.4925 48.7288L66.3976 48.8706V49.0412H66.9588ZM72.8395 40.2628L73.3058 40.5752L73.891 39.7015H72.8395V40.2628ZM66.8949 40.2628H66.3336V40.824H66.8949V40.2628ZM66.8949 39.0909V38.5297H66.3336V39.0909H66.8949ZM74.4162 39.0909H74.9774V38.5297H74.4162V39.0909ZM74.4162 40.0497L74.8825 40.3621L74.9774 40.2203V40.0497H74.4162ZM68.5355 48.8281L68.0692 48.5158L67.484 49.3894H68.5355V48.8281ZM74.4801 48.8281H75.0414V48.2669H74.4801V48.8281ZM74.4801 50V50.5612H75.0414V50H74.4801ZM67.5201 50V49.0412H66.3976V50H67.5201ZM67.4251 49.3536L73.3058 40.5752L72.3732 39.9504L66.4925 48.7288L67.4251 49.3536ZM72.8395 39.7015H66.8949V40.824H72.8395V39.7015ZM67.4561 40.2628V39.0909H66.3336V40.2628H67.4561ZM66.8949 39.6522H74.4162V38.5297H66.8949V39.6522ZM73.8549 39.0909V40.0497H74.9774V39.0909H73.8549ZM73.9499 39.7373L68.0692 48.5158L69.0018 49.1405L74.8825 40.3621L73.9499 39.7373ZM68.5355 49.3894H74.4801V48.2669H68.5355V49.3894ZM73.9189 48.8281V50H75.0414V48.8281H73.9189ZM74.4801 49.4388H66.9588V50.5612H74.4801V49.4388Z" fill="black"/>
<path d="M83.9588 45V44.0412L89.8395 35.2628H83.8949V34.0909H91.4162V35.0497L85.5355 43.8281H91.4801V45H83.9588Z" fill="black"/>
<path d="M83.9588 45H83.3822V45.5766H83.9588V45ZM83.9588 44.0412L83.4797 43.7203L83.3822 43.8659V44.0412H83.9588ZM89.8395 35.2628L90.3186 35.5837L90.9198 34.6862H89.8395V35.2628ZM83.8949 35.2628H83.3183V35.8394H83.8949V35.2628ZM83.8949 34.0909V33.5143H83.3183V34.0909H83.8949ZM91.4162 34.0909H91.9928V33.5143H91.4162V34.0909ZM91.4162 35.0497L91.8953 35.3706L91.9928 35.225V35.0497H91.4162ZM85.5355 43.8281L85.0564 43.5072L84.4552 44.4048H85.5355V43.8281ZM91.4801 43.8281H92.0567V43.2515H91.4801V43.8281ZM91.4801 45V45.5766H92.0567V45H91.4801ZM84.5354 45V44.0412H83.3822V45H84.5354ZM84.4379 44.3621L90.3186 35.5837L89.3604 34.9419L83.4797 43.7203L84.4379 44.3621ZM89.8395 34.6862H83.8949V35.8394H89.8395V34.6862ZM84.4715 35.2628V34.0909H83.3183V35.2628H84.4715ZM83.8949 34.6675H91.4162V33.5143H83.8949V34.6675ZM90.8396 34.0909V35.0497H91.9928V34.0909H90.8396ZM90.9371 34.7288L85.0564 43.5072L86.0146 44.1491L91.8953 35.3706L90.9371 34.7288ZM85.5355 44.4048H91.4801V43.2515H85.5355V44.4048ZM90.9035 43.8281V45H92.0567V43.8281H90.9035ZM91.4801 44.4234H83.9588V45.5766H91.4801V44.4234Z" fill="black"/>
<path d="M75.9947 57.5039C75.9947 57.5039 67.6161 61.7352 73.4764 68.3588L74.9149 70.2019H87.7666C87.7666 70.2019 96.2477 61.7227 86.7892 57.8492L75.9947 57.5039Z" stroke="black" stroke-width="5" stroke-miterlimit="10"/>
<path d="M73.9926 70.9048H38.6771C38.6771 70.9048 21.4036 79.2633 38.6771 88.4873H88.2827C88.2827 88.4873 103.397 79.696 88.2827 70.9048H73.9926Z" stroke="black" stroke-width="5" stroke-miterlimit="10"/>
<path d="M86.3792 89.0327V94.8949C86.3792 94.8949 85.2994 98.2608 82.6786 96.5758L79.5928 92.7231" stroke="black" stroke-width="5" stroke-miterlimit="10"/>
<path d="M39.6035 89.0327V94.8949C39.6035 94.8949 40.6834 98.2608 43.3041 96.5758L46.39 92.7231" stroke="black" stroke-width="5" stroke-miterlimit="10"/>
<defs>
<filter id="filter0_d_466_1460" x="0" y="0" width="124" height="124" filterUnits="userSpaceOnUse" color-interpolation-filters="sRGB">
<feFlood flood-opacity="0" result="BackgroundImageFix"/>
<feColorMatrix in="SourceAlpha" type="matrix" values="0 0 0 0 0 0 0 0 0 0 0 0 0 0 0 0 0 0 127 0" result="hardAlpha"/>
<feOffset dy="4"/>
<feGaussianBlur stdDeviation="2"/>
<feComposite in2="hardAlpha" operator="out"/>
<feColorMatrix type="matrix" values="0 0 0 0 0 0 0 0 0 0 0 0 0 0 0 0 0 0 0.25 0"/>
<feBlend mode="normal" in2="BackgroundImageFix" result="effect1_dropShadow_466_1460"/>
<feBlend mode="normal" in="SourceGraphic" in2="effect1_dropShadow_466_1460" result="shape"/>
</filter>
</defs>
</svg>
