<svg width="124" height="124" viewBox="0 0 124 124" fill="none" xmlns="http://www.w3.org/2000/svg">
<g filter="url(#filter0_d_423_1610)">
<rect x="4" width="116" height="116" fill="white"/>
</g>
<path opacity="0.5" d="M65.125 94.8125C83.7301 94.8125 98.8125 79.7301 98.8125 61.125C98.8125 42.5199 83.7301 27.4375 65.125 27.4375C46.5199 27.4375 31.4375 42.5199 31.4375 61.125C31.4375 79.7301 46.5199 94.8125 65.125 94.8125Z" fill="#EF643B"/>
<path opacity="0.25" d="M44.2705 69.1457C54.902 69.1457 63.5205 60.1681 63.5205 49.0936C63.5205 38.0191 54.902 29.0415 44.2705 29.0415C33.6391 29.0415 25.0205 38.0191 25.0205 49.0936C25.0205 60.1681 33.6391 69.1457 44.2705 69.1457Z" fill="#C16AFF"/>
<path opacity="0.5" d="M73.1458 93.2085C85.5493 93.2085 95.6042 83.5126 95.6042 71.5522C95.6042 59.5919 85.5493 49.896 73.1458 49.896C60.7424 49.896 50.6875 59.5919 50.6875 71.5522C50.6875 83.5126 60.7424 93.2085 73.1458 93.2085Z" fill="#C16AFF"/>
<path opacity="0.5" d="M70.7399 77.1668C86.2442 77.1668 98.8128 64.5982 98.8128 49.0939C98.8128 33.5896 86.2442 21.021 70.7399 21.021C55.2356 21.021 42.667 33.5896 42.667 49.0939C42.667 64.5982 55.2356 77.1668 70.7399 77.1668Z" fill="#FFEB3B"/>
<g clip-path="url(#clip0_423_1610)">
<path d="M94.2564 66.7153H28.7441V82.2629H94.2564V66.7153Z" stroke="black" stroke-width="5" stroke-miterlimit="10"/>
<path d="M61.4542 33.7378C43.9462 33.7378 29.7529 47.8103 29.7529 65.1692H93.1585C93.1585 47.8103 78.9652 33.7378 61.4542 33.7378Z" stroke="black" stroke-width="5" stroke-miterlimit="10"/>
<path d="M61.4544 43.376C48.7697 43.376 38.4893 53.5719 38.4893 66.1456H84.4225C84.4225 53.5689 74.1391 43.376 61.4574 43.376H61.4544Z" stroke="black" stroke-width="5" stroke-miterlimit="10"/>
<path d="M38.4893 43.5029L45.2616 49.9993" stroke="black" stroke-width="5" stroke-miterlimit="10"/>
<path d="M61.4541 33.7378V43.3761" stroke="black" stroke-width="5" stroke-miterlimit="10"/>
<path d="M84.4226 43.5029L78.0342 49.9993" stroke="black" stroke-width="5" stroke-miterlimit="10"/>
<path d="M46.6457 86.5098V77.7825H47.7025V81.6689H52.3559V77.7825H53.4127V86.5098H52.3559V82.6064H47.7025V86.5098H46.6457ZM47.7025 92.7825V101.51H46.6457V92.7825H47.7025ZM52.6116 110.51C52.5178 110.223 52.3943 109.966 52.2409 109.738C52.0903 109.508 51.9099 109.312 51.6997 109.15C51.4923 108.988 51.2565 108.865 50.9923 108.78C50.7281 108.694 50.4383 108.652 50.123 108.652C49.6059 108.652 49.1357 108.785 48.7124 109.052C48.2892 109.319 47.9525 109.713 47.7025 110.233C47.4525 110.753 47.3275 111.39 47.3275 112.146C47.3275 112.902 47.4539 113.54 47.7068 114.059C47.9596 114.579 48.3019 114.973 48.7338 115.24C49.1656 115.507 49.6514 115.64 50.1911 115.64C50.6911 115.64 51.1315 115.534 51.5122 115.321C51.8957 115.105 52.194 114.801 52.407 114.409C52.623 114.014 52.7309 113.55 52.7309 113.015L53.0548 113.084H50.4298V112.146H53.7536V113.084C53.7536 113.802 53.6002 114.427 53.2934 114.959C52.9894 115.49 52.569 115.902 52.032 116.194C51.498 116.484 50.8843 116.629 50.1911 116.629C49.4184 116.629 48.7394 116.447 48.1542 116.084C47.5718 115.72 47.1173 115.203 46.7906 114.532C46.4667 113.862 46.3048 113.067 46.3048 112.146C46.3048 111.456 46.3971 110.835 46.5818 110.284C46.7693 109.73 47.0335 109.258 47.3744 108.869C47.7153 108.48 48.1187 108.182 48.5846 107.974C49.0505 107.767 49.5633 107.663 50.123 107.663C50.5832 107.663 51.0122 107.733 51.4099 107.872C51.8105 108.008 52.167 108.203 52.4795 108.456C52.7948 108.706 53.0576 109.006 53.2678 109.355C53.4781 109.702 53.623 110.086 53.7025 110.51H52.6116ZM46.6457 131.51V122.782H47.7025V126.669H52.3559V122.782H53.4127V131.51H52.3559V127.606H47.7025V131.51H46.6457Z" fill="black"/>
<path d="M46.6457 86.5098H44.1457V89.0098H46.6457V86.5098ZM46.6457 77.7825V75.2825H44.1457V77.7825H46.6457ZM47.7025 77.7825H50.2025V75.2825H47.7025V77.7825ZM47.7025 81.6689H45.2025V84.1689H47.7025V81.6689ZM52.3559 81.6689V84.1689H54.8559V81.6689H52.3559ZM52.3559 77.7825V75.2825H49.8559V77.7825H52.3559ZM53.4127 77.7825H55.9127V75.2825H53.4127V77.7825ZM53.4127 86.5098V89.0098H55.9127V86.5098H53.4127ZM52.3559 86.5098H49.8559V89.0098H52.3559V86.5098ZM52.3559 82.6064H54.8559V80.1064H52.3559V82.6064ZM47.7025 82.6064V80.1064H45.2025V82.6064H47.7025ZM47.7025 86.5098V89.0098H50.2025V86.5098H47.7025ZM49.1457 86.5098V77.7825H44.1457V86.5098H49.1457ZM46.6457 80.2825H47.7025V75.2825H46.6457V80.2825ZM45.2025 77.7825V81.6689H50.2025V77.7825H45.2025ZM47.7025 84.1689H52.3559V79.1689H47.7025V84.1689ZM54.8559 81.6689V77.7825H49.8559V81.6689H54.8559ZM52.3559 80.2825H53.4127V75.2825H52.3559V80.2825ZM50.9127 77.7825V86.5098H55.9127V77.7825H50.9127ZM53.4127 84.0098H52.3559V89.0098H53.4127V84.0098ZM54.8559 86.5098V82.6064H49.8559V86.5098H54.8559ZM52.3559 80.1064H47.7025V85.1064H52.3559V80.1064ZM45.2025 82.6064V86.5098H50.2025V82.6064H45.2025ZM47.7025 84.0098H46.6457V89.0098H47.7025V84.0098ZM47.7025 92.7825H50.2025V90.2825H47.7025V92.7825ZM47.7025 101.51V104.01H50.2025V101.51H47.7025ZM46.6457 101.51H44.1457V104.01H46.6457V101.51ZM46.6457 92.7825V90.2825H44.1457V92.7825H46.6457ZM45.2025 92.7825V101.51H50.2025V92.7825H45.2025ZM47.7025 99.0098H46.6457V104.01H47.7025V99.0098ZM49.1457 101.51V92.7825H44.1457V101.51H49.1457ZM46.6457 95.2825H47.7025V90.2825H46.6457V95.2825ZM52.6116 110.51L50.2352 111.286L50.7984 113.01H52.6116V110.51ZM52.2409 109.738L50.1489 111.107L50.1587 111.122L50.1687 111.137L52.2409 109.738ZM51.6997 109.15L50.1611 111.121L50.1676 111.126L50.1741 111.131L51.6997 109.15ZM50.9923 108.78L51.7598 106.4L51.7598 106.4L50.9923 108.78ZM47.7025 110.233L49.9555 111.316L49.9555 111.316L47.7025 110.233ZM47.7068 114.059L45.4585 115.153L45.4585 115.153L47.7068 114.059ZM51.5122 115.321L52.7332 117.502L52.7386 117.499L51.5122 115.321ZM52.407 114.409L50.2135 113.21L50.2105 113.215L52.407 114.409ZM52.7309 113.015L53.2459 110.569L50.2309 109.934V113.015H52.7309ZM53.0548 113.084V115.584H77.0651L53.5698 110.637L53.0548 113.084ZM50.4298 113.084H47.9298V115.584H50.4298V113.084ZM50.4298 112.146V109.646H47.9298V112.146H50.4298ZM53.7536 112.146H56.2536V109.646H53.7536V112.146ZM53.2934 114.959L51.1285 113.708L51.1235 113.717L53.2934 114.959ZM52.032 116.194L53.2243 118.392L53.2284 118.39L52.032 116.194ZM48.1542 116.084L46.8301 118.204L46.8348 118.207L48.1542 116.084ZM46.7906 114.532L44.5394 115.62L44.5432 115.628L46.7906 114.532ZM46.5818 110.284L44.2137 109.482L44.2113 109.49L46.5818 110.284ZM47.3744 108.869L49.255 110.516L49.255 110.516L47.3744 108.869ZM51.4099 107.872L50.584 110.232L50.5941 110.235L50.6042 110.239L51.4099 107.872ZM52.4795 108.456L50.907 110.399L50.9167 110.407L50.9264 110.415L52.4795 108.456ZM53.2678 109.355L51.1256 110.644L51.1303 110.651L53.2678 109.355ZM53.7025 110.51V113.01H56.7161L56.1595 110.048L53.7025 110.51ZM54.988 109.733C54.8294 109.248 54.6085 108.778 54.313 108.34L50.1687 111.137C50.18 111.154 50.2063 111.198 50.2352 111.286L54.988 109.733ZM54.3328 108.37C54.0347 107.914 53.6652 107.509 53.2252 107.17L50.1741 111.131C50.1661 111.125 50.1588 111.118 50.1531 111.112C50.1474 111.106 50.1463 111.103 50.1489 111.107L54.3328 108.37ZM53.2382 107.18C52.7873 106.828 52.2875 106.571 51.7598 106.4L50.2248 111.159C50.2272 111.16 50.2202 111.158 50.2068 111.151C50.1931 111.143 50.1772 111.133 50.1611 111.121L53.2382 107.18ZM51.7598 106.4C51.2165 106.225 50.664 106.152 50.123 106.152V111.152C50.2126 111.152 50.2397 111.164 50.2248 111.159L51.7598 106.4ZM50.123 106.152C49.1502 106.152 48.2148 106.41 47.3785 106.938L50.0464 111.167C50.0547 111.161 50.0597 111.159 50.0615 111.158C50.0632 111.158 50.0643 111.157 50.0655 111.157C50.0659 111.157 50.082 111.152 50.123 111.152V106.152ZM47.3785 106.938C46.5005 107.492 45.8712 108.272 45.4495 109.149L49.9555 111.316C49.9972 111.23 50.0295 111.188 50.0421 111.173C50.0531 111.16 50.054 111.162 50.0464 111.167L47.3785 106.938ZM45.4495 109.149C44.9947 110.095 44.8275 111.127 44.8275 112.146H49.8275C49.8275 111.654 49.9104 111.41 49.9555 111.316L45.4495 109.149ZM44.8275 112.146C44.8275 113.169 44.9972 114.204 45.4585 115.153L49.955 112.966C49.9106 112.875 49.8275 112.635 49.8275 112.146H44.8275ZM45.4585 115.153C45.889 116.038 46.5307 116.817 47.4188 117.366L50.0487 113.114C50.0487 113.114 50.0487 113.114 50.0489 113.114C50.049 113.114 50.0491 113.114 50.0493 113.114C50.0496 113.114 50.0496 113.114 50.0493 113.114C50.049 113.114 50.0456 113.111 50.0392 113.104C50.027 113.089 49.9956 113.05 49.955 112.966L45.4585 115.153ZM47.4188 117.366C48.271 117.893 49.2174 118.14 50.1911 118.14V113.14C50.0853 113.14 50.0602 113.121 50.0487 113.114L47.4188 117.366ZM50.1911 118.14C51.0554 118.14 51.9279 117.953 52.7332 117.502L50.2911 113.139C50.3071 113.13 50.3159 113.129 50.3085 113.131C50.2995 113.133 50.2633 113.14 50.1911 113.14V118.14ZM52.7386 117.499C53.5376 117.05 54.1694 116.402 54.6036 115.603L50.2105 113.215C50.2095 113.217 50.2181 113.201 50.2392 113.18C50.2604 113.158 50.2792 113.146 50.2857 113.142L52.7386 117.499ZM54.6006 115.608C55.052 114.783 55.2309 113.89 55.2309 113.015H50.2309C50.2309 113.114 50.2209 113.172 50.2149 113.198C50.2092 113.223 50.2063 113.223 50.2135 113.21L54.6006 115.608ZM52.2159 115.462L52.5398 115.53L53.5698 110.637L53.2459 110.569L52.2159 115.462ZM53.0548 110.584H50.4298V115.584H53.0548V110.584ZM52.9298 113.084V112.146H47.9298V113.084H52.9298ZM50.4298 114.646H53.7536V109.646H50.4298V114.646ZM51.2536 112.146V113.084H56.2536V112.146H51.2536ZM51.2536 113.084C51.2536 113.439 51.1807 113.618 51.1285 113.708L55.4583 116.209C56.0198 115.237 56.2536 114.165 56.2536 113.084H51.2536ZM51.1235 113.717C51.0493 113.847 50.9657 113.928 50.8357 113.999L53.2284 118.39C54.1723 117.875 54.9296 117.133 55.4633 116.2L51.1235 113.717ZM50.8398 113.997C50.7205 114.062 50.5272 114.129 50.1911 114.129V119.129C51.2414 119.129 52.2754 118.907 53.2243 118.392L50.8398 113.997ZM50.1911 114.129C49.8265 114.129 49.616 114.049 49.4736 113.96L46.8348 118.207C47.8628 118.846 49.0104 119.129 50.1911 119.129V114.129ZM49.4783 113.963C49.328 113.869 49.1776 113.724 49.038 113.437L44.5432 115.628C45.057 116.682 45.8157 117.571 46.8301 118.204L49.4783 113.963ZM49.0417 113.445C48.9157 113.184 48.8048 112.777 48.8048 112.146H43.8048C43.8048 113.356 44.0177 114.54 44.5395 115.62L49.0417 113.445ZM48.8048 112.146C48.8048 111.677 48.8677 111.33 48.9522 111.078L44.2113 109.49C43.9265 110.34 43.8048 111.235 43.8048 112.146H48.8048ZM48.9498 111.085C49.0457 110.802 49.157 110.628 49.255 110.516L45.4938 107.222C44.91 107.888 44.4929 108.658 44.2137 109.482L48.9498 111.085ZM49.255 110.516C49.361 110.395 49.4709 110.316 49.6012 110.258L47.568 105.69C46.7664 106.047 46.0696 106.565 45.4938 107.222L49.255 110.516ZM49.6012 110.258C49.7171 110.207 49.8792 110.163 50.123 110.163V105.163C49.2474 105.163 48.3839 105.327 47.568 105.69L49.6012 110.258ZM50.123 110.163C50.3278 110.163 50.4751 110.194 50.584 110.232L52.2358 105.512C51.5492 105.272 50.8385 105.163 50.123 105.163V110.163ZM50.6042 110.239C50.7411 110.285 50.8351 110.341 50.907 110.399L54.052 106.512C53.4989 106.065 52.8798 105.731 52.2155 105.505L50.6042 110.239ZM50.9264 110.415C51.0036 110.476 51.0679 110.548 51.1257 110.644L55.41 108.066C55.0473 107.463 54.5861 106.936 54.0326 106.497L50.9264 110.415ZM51.1303 110.651C51.1752 110.726 51.2179 110.825 51.2455 110.971L56.1595 110.048C56.028 109.348 55.7809 108.678 55.4054 108.058L51.1303 110.651ZM53.7025 108.01H52.6116V113.01H53.7025V108.01ZM46.6457 131.51H44.1457V134.01H46.6457V131.51ZM46.6457 122.782V120.282H44.1457V122.782H46.6457ZM47.7025 122.782H50.2025V120.282H47.7025V122.782ZM47.7025 126.669H45.2025V129.169H47.7025V126.669ZM52.3559 126.669V129.169H54.8559V126.669H52.3559ZM52.3559 122.782V120.282H49.8559V122.782H52.3559ZM53.4127 122.782H55.9127V120.282H53.4127V122.782ZM53.4127 131.51V134.01H55.9127V131.51H53.4127ZM52.3559 131.51H49.8559V134.01H52.3559V131.51ZM52.3559 127.606H54.8559V125.106H52.3559V127.606ZM47.7025 127.606V125.106H45.2025V127.606H47.7025ZM47.7025 131.51V134.01H50.2025V131.51H47.7025ZM49.1457 131.51V122.782H44.1457V131.51H49.1457ZM46.6457 125.282H47.7025V120.282H46.6457V125.282ZM45.2025 122.782V126.669H50.2025V122.782H45.2025ZM47.7025 129.169H52.3559V124.169H47.7025V129.169ZM54.8559 126.669V122.782H49.8559V126.669H54.8559ZM52.3559 125.282H53.4127V120.282H52.3559V125.282ZM50.9127 122.782V131.51H55.9127V122.782H50.9127ZM53.4127 129.01H52.3559V134.01H53.4127V129.01ZM54.8559 131.51V127.606H49.8559V131.51H54.8559ZM52.3559 125.106H47.7025V130.106H52.3559V125.106ZM45.2025 127.606V131.51H50.2025V127.606H45.2025ZM47.7025 129.01H46.6457V134.01H47.7025V129.01Z" fill="black"/>
<path d="M55.8359 65.1721C55.8925 59.6109 59.7874 57.891 64.7625 59.4575L64.6822 59.4457L65.1493 59.4398L64.9708 59.5047C68.717 56.7551 73.4689 55.8642 78.0334 55.7609C80.2293 55.1974 91.8279 52.4626 94.2351 51.8726C90.4979 54.0498 83.7405 58.0178 79.9824 60.1774C78.2179 61.3398 76.4028 62.4107 74.5312 63.4049C72.4096 64.4522 70.1482 65.7444 67.6904 65.8123C63.7568 65.9362 59.8321 65.7651 55.9103 65.5231V65.3756L65.2862 64.8298C66.5895 64.7 67.9553 64.7472 69.202 64.3372C72.5941 63.0951 75.7125 61.0152 78.7892 59.1242C80.9107 57.8526 87.8616 54.1383 90.117 52.8815L90.5544 53.9908L78.1405 56.6548C78.1167 56.6637 78.0631 56.6666 78.0393 56.6666C73.6564 56.6666 68.9997 57.4248 65.3309 59.9237L65.2416 59.9886C65.0988 59.9886 64.8161 59.9827 64.6881 59.9797C63.1914 59.5254 61.6204 59.1507 60.0582 59.428C57.3207 59.8499 56.0055 62.6437 55.9907 65.1691L55.8419 65.175L55.8359 65.1721Z" fill="black"/>
<path d="M59.1719 64.9068C59.1719 64.9068 61.5017 59.0949 63.7899 64.9068" stroke="black" stroke-width="5" stroke-miterlimit="10"/>
</g>
<defs>
<filter id="filter0_d_423_1610" x="0" y="0" width="124" height="124" filterUnits="userSpaceOnUse" color-interpolation-filters="sRGB">
<feFlood flood-opacity="0" result="BackgroundImageFix"/>
<feColorMatrix in="SourceAlpha" type="matrix" values="0 0 0 0 0 0 0 0 0 0 0 0 0 0 0 0 0 0 127 0" result="hardAlpha"/>
<feOffset dy="4"/>
<feGaussianBlur stdDeviation="2"/>
<feComposite in2="hardAlpha" operator="out"/>
<feColorMatrix type="matrix" values="0 0 0 0 0 0 0 0 0 0 0 0 0 0 0 0 0 0 0.25 0"/>
<feBlend mode="normal" in2="BackgroundImageFix" result="effect1_dropShadow_423_1610"/>
<feBlend mode="normal" in="SourceGraphic" in2="effect1_dropShadow_423_1610" result="shape"/>
</filter>
<clipPath id="clip0_423_1610">
<rect width="67" height="50" fill="white" transform="translate(28 33)"/>
</clipPath>
</defs>
</svg>
