<svg width="124" height="124" viewBox="0 0 124 124" fill="none" xmlns="http://www.w3.org/2000/svg">
<g filter="url(#filter0_d_423_1609)">
<rect x="4" width="116" height="116" fill="white"/>
</g>
<path opacity="0.25" d="M54.1875 94.8123C70.7906 94.8123 84.25 81.1663 84.25 64.3332C84.25 47.5 70.7906 33.854 54.1875 33.854C37.5844 33.854 24.125 47.5 24.125 64.3332C24.125 81.1663 37.5844 94.8123 54.1875 94.8123Z" fill="#C16AFF"/>
<path opacity="0.5" d="M52.5625 72.3543C66.4732 72.3543 77.75 60.863 77.75 46.6877C77.75 32.5123 66.4732 21.021 52.5625 21.021C38.6519 21.021 27.375 32.5123 27.375 46.6877C27.375 60.863 38.6519 72.3543 52.5625 72.3543Z" fill="#FFEB3B"/>
<path opacity="0.5" d="M84.25 46.6873C90.5323 46.6873 95.625 41.6599 95.625 35.4582C95.625 29.2565 90.5323 24.229 84.25 24.229C77.9678 24.229 72.875 29.2565 72.875 35.4582C72.875 41.6599 77.9678 46.6873 84.25 46.6873Z" fill="#C16AFF"/>
<path opacity="0.5" d="M73.6875 93.2083C87.5982 93.2083 98.875 81.717 98.875 67.5417C98.875 53.3663 87.5982 41.875 73.6875 41.875C59.7769 41.875 48.5 53.3663 48.5 67.5417C48.5 81.717 59.7769 93.2083 73.6875 93.2083Z" fill="#EF643B"/>
<g clip-path="url(#clip0_423_1609)">
<path d="M93.24 76.98L96.37 38.24C86.07 27.93 70.54 26.5 70.54 26.5H60.76C43.02 27.28 34.54 38.24 34.54 38.24L36.5 76.98" stroke="black" stroke-width="5" stroke-miterlimit="10"/>
<path d="M33.8299 76.98C33.8299 76.98 32.5599 87.35 40.6799 89.99H89.2899C89.2899 89.99 95.3599 89.01 95.8399 76.98H33.8299ZM65.4299 86.63C63.8999 86.63 62.6599 85.39 62.6599 83.86C62.6599 82.33 63.8999 81.09 65.4299 81.09C66.9599 81.09 68.1999 82.33 68.1999 83.86C68.1999 85.39 66.9599 86.63 65.4299 86.63Z" fill="black"/>
<path d="M46.2971 72.1001V63.3728H47.3539V67.7024H47.4561L51.3766 63.3728H52.7573L49.0925 67.3103L52.7573 72.1001H51.4789L48.4448 68.0433L47.3539 69.2706V72.1001H46.2971ZM59.6809 66.1001C59.5872 65.8132 59.4636 65.5561 59.3102 65.3288C59.1596 65.0987 58.9792 64.9027 58.769 64.7407C58.5616 64.5788 58.3258 64.4552 58.0616 64.37C57.7974 64.2848 57.5076 64.2421 57.1923 64.2421C56.6752 64.2421 56.2051 64.3757 55.7818 64.6427C55.3585 64.9098 55.0218 65.3032 54.7718 65.8231C54.5218 66.343 54.3968 66.9808 54.3968 67.7365C54.3968 68.4921 54.5233 69.1299 54.7761 69.6498C55.0289 70.1697 55.3713 70.5632 55.8031 70.8302C56.2349 71.0973 56.7207 71.2308 57.2605 71.2308C57.7605 71.2308 58.2008 71.1242 58.5815 70.9112C58.965 70.6953 59.2633 70.3913 59.4764 69.9992C59.6923 69.6044 59.8002 69.1399 59.8002 68.6058L60.1241 68.674H57.4991V67.7365H60.823V68.674C60.823 69.3927 60.6696 70.0177 60.3627 70.549C60.0588 71.0802 59.6383 71.4921 59.1014 71.7848C58.5673 72.0745 57.9537 72.2194 57.2605 72.2194C56.4877 72.2194 55.8088 72.0376 55.2235 71.674C54.6412 71.3103 54.1866 70.7933 53.8599 70.1228C53.536 69.4524 53.3741 68.6569 53.3741 67.7365C53.3741 67.0461 53.4664 66.4254 53.6511 65.8742C53.8386 65.3203 54.1028 64.8487 54.4437 64.4595C54.7846 64.0703 55.188 63.772 55.6539 63.5646C56.1199 63.3572 56.6326 63.2535 57.1923 63.2535C57.6525 63.2535 58.0815 63.3231 58.4792 63.4623C58.8798 63.5987 59.2363 63.7933 59.5488 64.0461C59.8642 64.2961 60.127 64.5958 60.3372 64.9453C60.5474 65.2919 60.6923 65.6768 60.7718 66.1001H59.6809Z" fill="black"/>
<path d="M46.2971 72.1001H45.7971V72.6001H46.2971V72.1001ZM46.2971 63.3728V62.8728H45.7971V63.3728H46.2971ZM47.3539 63.3728H47.8539V62.8728H47.3539V63.3728ZM47.3539 67.7024H46.8539V68.2024H47.3539V67.7024ZM47.4561 67.7024V68.2024H47.6779L47.8268 68.038L47.4561 67.7024ZM51.3766 63.3728V62.8728H51.1548L51.006 63.0372L51.3766 63.3728ZM52.7573 63.3728L53.1233 63.7135L53.9057 62.8728H52.7573V63.3728ZM49.0925 67.3103L48.7265 66.9697L48.4388 67.2788L48.6954 67.6142L49.0925 67.3103ZM52.7573 72.1001V72.6001H53.7694L53.1544 71.7963L52.7573 72.1001ZM51.4789 72.1001L51.0785 72.3996L51.2285 72.6001H51.4789V72.1001ZM48.4448 68.0433L48.8452 67.7438L48.4782 67.2531L48.0711 67.7111L48.4448 68.0433ZM47.3539 69.2706L46.9802 68.9384L46.8539 69.0805V69.2706H47.3539ZM47.3539 72.1001V72.6001H47.8539V72.1001H47.3539ZM46.7971 72.1001V63.3728H45.7971V72.1001H46.7971ZM46.2971 63.8728H47.3539V62.8728H46.2971V63.8728ZM46.8539 63.3728V67.7024H47.8539V63.3728H46.8539ZM47.3539 68.2024H47.4561V67.2024H47.3539V68.2024ZM47.8268 68.038L51.7472 63.7084L51.006 63.0372L47.0855 67.3668L47.8268 68.038ZM51.3766 63.8728H52.7573V62.8728H51.3766V63.8728ZM52.3913 63.0322L48.7265 66.9697L49.4585 67.651L53.1233 63.7135L52.3913 63.0322ZM48.6954 67.6142L52.3602 72.4039L53.1544 71.7963L49.4896 67.0065L48.6954 67.6142ZM52.7573 71.6001H51.4789V72.6001H52.7573V71.6001ZM51.8793 71.8006L48.8452 67.7438L48.0444 68.3427L51.0785 72.3996L51.8793 71.8006ZM48.0711 67.7111L46.9802 68.9384L47.7276 69.6027L48.8185 68.3755L48.0711 67.7111ZM46.8539 69.2706V72.1001H47.8539V69.2706H46.8539ZM47.3539 71.6001H46.2971V72.6001H47.3539V71.6001ZM59.6809 66.1001L59.2057 66.2554L59.3183 66.6001H59.6809V66.1001ZM59.3102 65.3288L58.8918 65.6026L58.8958 65.6085L59.3102 65.3288ZM58.769 64.7407L58.4613 65.1348L58.4639 65.1368L58.769 64.7407ZM58.0616 64.37L58.2151 63.8941L58.2151 63.8941L58.0616 64.37ZM54.7718 65.8231L55.2224 66.0398L55.2224 66.0398L54.7718 65.8231ZM54.7761 69.6498L54.3265 69.8685L54.3265 69.8685L54.7761 69.6498ZM58.5815 70.9112L58.8257 71.3475L58.8268 71.3469L58.5815 70.9112ZM59.4764 69.9992L59.0377 69.7594L59.0371 69.7605L59.4764 69.9992ZM59.8002 68.6058L59.9033 68.1165L59.3002 67.9896V68.6058H59.8002ZM60.1241 68.674V69.174H64.9262L60.2271 68.1847L60.1241 68.674ZM57.4991 68.674H56.9991V69.174H57.4991V68.674ZM57.4991 67.7365V67.2365H56.9991V67.7365H57.4991ZM60.823 67.7365H61.323V67.2365H60.823V67.7365ZM60.3627 70.549L59.9298 70.2989L59.9288 70.3006L60.3627 70.549ZM59.1014 71.7848L59.3398 72.2242L59.3406 72.2238L59.1014 71.7848ZM55.2235 71.674L54.9587 72.0981L54.9597 72.0987L55.2235 71.674ZM53.8599 70.1228L53.4097 70.3403L53.4104 70.3418L53.8599 70.1228ZM53.6511 65.8742L53.1775 65.7139L53.177 65.7154L53.6511 65.8742ZM54.4437 64.4595L54.8198 64.7889L54.8198 64.7889L54.4437 64.4595ZM58.4792 63.4623L58.314 63.9343L58.3181 63.9356L58.4792 63.4623ZM59.5488 64.0461L59.2343 64.4348L59.2382 64.4379L59.5488 64.0461ZM60.3372 64.9453L59.9087 65.203L59.9097 65.2046L60.3372 64.9453ZM60.7718 66.1001V66.6001H61.3746L61.2632 66.0078L60.7718 66.1001ZM60.1562 65.9448C60.0495 65.6182 59.9065 65.3184 59.7246 65.0491L58.8958 65.6085C59.0207 65.7937 59.1249 66.0082 59.2057 66.2554L60.1562 65.9448ZM59.7286 65.055C59.5485 64.7798 59.3303 64.5419 59.0741 64.3446L58.4639 65.1368C58.6282 65.2634 58.7707 65.4176 58.8918 65.6026L59.7286 65.055ZM59.0767 64.3466C58.8206 64.1467 58.532 63.9964 58.2151 63.8941L57.9081 64.8458C58.1196 64.9141 58.3026 65.0109 58.4613 65.1348L59.0767 64.3466ZM58.2151 63.8941C57.8951 63.7909 57.5528 63.7421 57.1923 63.7421V64.7421C57.4625 64.7421 57.6997 64.7786 57.9081 64.8458L58.2151 63.8941ZM57.1923 63.7421C56.5841 63.7421 56.0209 63.9007 55.515 64.2198L56.0486 65.0656C56.3893 64.8507 56.7664 64.7421 57.1923 64.7421V63.7421ZM55.515 64.2198C55.0008 64.5443 54.6056 65.0151 54.3212 65.6064L55.2224 66.0398C55.4381 65.5914 55.7162 65.2753 56.0486 65.0656L55.515 64.2198ZM54.3212 65.6064C54.0303 66.2115 53.8968 66.9281 53.8968 67.7365H54.8968C54.8968 67.0335 55.0134 66.4745 55.2224 66.0398L54.3212 65.6064ZM53.8968 67.7365C53.8968 68.5456 54.0319 69.2629 54.3265 69.8685L55.2257 69.4311C55.0146 68.997 54.8968 68.4387 54.8968 67.7365H53.8968ZM54.3265 69.8685C54.6148 70.4614 55.017 70.932 55.5401 71.2555L56.0661 70.405C55.7255 70.1943 55.4431 69.878 55.2257 69.4311L54.3265 69.8685ZM55.5401 71.2555C56.056 71.5745 56.6339 71.7308 57.2605 71.7308V70.7308C56.8075 70.7308 56.4138 70.62 56.0661 70.405L55.5401 71.2555ZM57.2605 71.7308C57.8333 71.7308 58.3601 71.6081 58.8257 71.3475L58.3373 70.4749C58.0415 70.6404 57.6876 70.7308 57.2605 70.7308V71.7308ZM58.8268 71.3469C59.2934 71.0842 59.6584 70.7114 59.9157 70.238L59.0371 69.7605C58.8682 70.0712 58.6366 70.3063 58.3362 70.4755L58.8268 71.3469ZM59.9151 70.2391C60.1781 69.7581 60.3002 69.2081 60.3002 68.6058H59.3002C59.3002 69.0717 59.2065 69.4507 59.0377 69.7594L59.9151 70.2391ZM59.6972 69.0951L60.0211 69.1632L60.2271 68.1847L59.9033 68.1165L59.6972 69.0951ZM60.1241 68.174H57.4991V69.174H60.1241V68.174ZM57.9991 68.674V67.7365H56.9991V68.674H57.9991ZM57.4991 68.2365H60.823V67.2365H57.4991V68.2365ZM60.323 67.7365V68.674H61.323V67.7365H60.323ZM60.323 68.674C60.323 69.3201 60.1857 69.8558 59.9298 70.2989L60.7957 70.799C61.1535 70.1796 61.323 69.4653 61.323 68.674H60.323ZM59.9288 70.3006C59.6707 70.7516 59.3177 71.0975 58.8621 71.3457L59.3406 72.2238C59.959 71.8868 60.4468 71.4088 60.7967 70.7973L59.9288 70.3006ZM58.8629 71.3453C58.4118 71.59 57.8822 71.7194 57.2605 71.7194V72.7194C58.0251 72.7194 58.7228 72.559 59.3398 72.2242L58.8629 71.3453ZM57.2605 71.7194C56.5694 71.7194 55.9841 71.5579 55.4874 71.2493L54.9597 72.0987C55.6335 72.5173 56.4061 72.7194 57.2605 72.7194V71.7194ZM55.4884 71.2498C54.9924 70.9402 54.5987 70.4975 54.3094 69.9038L53.4104 70.3418C53.7745 71.0891 54.2899 71.6805 54.9587 72.0981L55.4884 71.2498ZM54.3101 69.9053C54.0258 69.3168 53.8741 68.599 53.8741 67.7365H52.8741C52.8741 68.7148 53.0462 69.5879 53.4097 70.3403L54.3101 69.9053ZM53.8741 67.7365C53.8741 67.0903 53.9606 66.5245 54.1252 66.0331L53.177 65.7154C52.9723 66.3263 52.8741 67.002 52.8741 67.7365H53.8741ZM54.1247 66.0345C54.2939 65.5347 54.5275 65.1227 54.8198 64.7889L54.0676 64.13C53.6781 64.5747 53.3833 65.1058 53.1775 65.7139L54.1247 66.0345ZM54.8198 64.7889C55.1138 64.4534 55.4585 64.1989 55.8573 64.0214L55.4506 63.1078C54.9176 63.3451 54.4555 63.6872 54.0676 64.13L54.8198 64.7889ZM55.8573 64.0214C56.2532 63.8452 56.6958 63.7535 57.1923 63.7535V62.7535C56.5695 62.7535 55.9865 62.8692 55.4506 63.1078L55.8573 64.0214ZM57.1923 63.7535C57.6015 63.7535 57.9741 63.8153 58.3141 63.9342L58.6444 62.9904C58.1889 62.831 57.7036 62.7535 57.1923 62.7535V63.7535ZM58.3181 63.9356C58.6659 64.054 58.9699 64.2209 59.2343 64.4348L59.8633 63.6574C59.5027 63.3656 59.0937 63.1433 58.6404 62.989L58.3181 63.9356ZM59.2382 64.4379C59.5059 64.6502 59.729 64.9043 59.9087 65.203L60.7656 64.6875C60.5249 64.2874 60.2224 63.9421 59.8595 63.6543L59.2382 64.4379ZM59.9097 65.2046C60.0868 65.4967 60.2113 65.8245 60.2804 66.1924L61.2632 66.0078C61.1733 65.5291 61.008 65.0871 60.7647 64.686L59.9097 65.2046ZM60.7718 65.6001H59.6809V66.6001H60.7718V65.6001Z" fill="black"/>
<path d="M46.2197 46.7202V40.1302C46.2197 40.1302 50.5197 34.8502 64.2497 35.3002L72.2397 34.9702C72.2397 34.9702 79.9997 37.4502 83.6497 40.4502L83.2597 46.7102H46.2197V46.7202Z" stroke="black" stroke-width="5" stroke-miterlimit="10"/>
<path d="M60.04 45.4798L64.25 39.0898H65.98L70.15 45.4798H60.04Z" fill="black"/>
</g>
<defs>
<filter id="filter0_d_423_1609" x="0" y="0" width="124" height="124" filterUnits="userSpaceOnUse" color-interpolation-filters="sRGB">
<feFlood flood-opacity="0" result="BackgroundImageFix"/>
<feColorMatrix in="SourceAlpha" type="matrix" values="0 0 0 0 0 0 0 0 0 0 0 0 0 0 0 0 0 0 127 0" result="hardAlpha"/>
<feOffset dy="4"/>
<feGaussianBlur stdDeviation="2"/>
<feComposite in2="hardAlpha" operator="out"/>
<feColorMatrix type="matrix" values="0 0 0 0 0 0 0 0 0 0 0 0 0 0 0 0 0 0 0.25 0"/>
<feBlend mode="normal" in2="BackgroundImageFix" result="effect1_dropShadow_423_1609"/>
<feBlend mode="normal" in="SourceGraphic" in2="effect1_dropShadow_423_1609" result="shape"/>
</filter>
<clipPath id="clip0_423_1609">
<rect width="66.95" height="65.99" fill="white" transform="translate(32 24)"/>
</clipPath>
</defs>
</svg>
